<?xml version="1.0" encoding="UTF-8"?>
<svg version="1.1" viewBox="0 0 34 55" xmlns="http://www.w3.org/2000/svg">
<g fill="none" fill-rule="evenodd">
<g transform="translate(-683 -946)" fill="#268383" stroke="#268383">
<path transform="translate(700 973.92) rotate(90) translate(-700 -973.92)" d="m726.21 974.95c0.013052-0.016371 0.026105-0.031943 0.037807-0.048714 0.060763-0.082254 0.11342-0.1685 0.15843-0.25834 0.009452-0.019166 0.018003-0.038732 0.027005-0.058297 0.041859-0.093833 0.076966-0.19046 0.10082-0.28949 0.003601-0.014375 0.005401-0.028749 0.008552-0.043523 0.023404-0.10861 0.037807-0.22001 0.037807-0.33261s-0.014403-0.224-0.037807-0.33261c-0.003151-0.014774-0.004951-0.029148-0.008552-0.043523-0.023855-0.099024-0.058962-0.19565-0.10082-0.28949-0.009002-0.019566-0.017553-0.039131-0.027005-0.058696-0.045009-0.089441-0.09767-0.17569-0.15843-0.25794-0.011702-0.01677-0.024755-0.032342-0.037807-0.048713-0.065264-0.082254-0.13638-0.16092-0.2165-0.23279-0.008551-0.007986-0.018003-0.013975-0.026555-0.021562-0.041409-0.036335-0.083717-0.071872-0.12963-0.10501l-20.254-14.704c-0.86508-0.62848-2.1415-0.51509-2.85 0.25275-0.70844 0.76784-0.58107 1.9002 0.28491 2.5283l15.863 11.516h-43.442c-1.1189 0-2.0254 0.80457-2.0254 1.7968s0.90648 1.7968 2.0254 1.7968h43.442l-15.863 11.516c-0.86598 0.62808-0.99335 1.7605-0.28491 2.5283 0.40058 0.43403 0.9821 0.65883 1.5686 0.65883 0.45144 0 0.90514-0.13296 1.2814-0.40608l20.254-14.704c0.04591-0.033141 0.088218-0.068678 0.12963-0.10501 0.008552-0.007587 0.018004-0.013576 0.026555-0.021562 0.080117-0.071873 0.15123-0.15053 0.2165-0.23279"/>
</g>
</g>
</svg>
