<?xml version="1.0" encoding="UTF-8"?>
<svg width="759px" height="851px" viewBox="0 0 759 851" version="1.1" xmlns="http://www.w3.org/2000/svg" xmlns:xlink="http://www.w3.org/1999/xlink" preserveAspectRatio="none">
    <title>C</title>
    <g id="Desktop" stroke="none" stroke-width="1" fill="none" fill-rule="evenodd" opacity="0.104389009">
        <g id="Homepage-desktop" transform="translate(-295, -3249)" fill="#FFFFFF" fill-rule="nonzero">
            <path d="M716.701901,4099.568 C756.619028,4099.568 792.622711,4096.24157 824.71295,4089.58872 C856.80319,4082.93586 886.349691,4073.15225 913.352453,4060.23789 C940.355215,4047.32352 965.205584,4031.86542 987.903558,4013.86358 C1010.60153,3995.86174 1032.51682,3975.51183 1053.64941,3952.81386 L938.594166,3836.58457 C906.503926,3866.32675 874.218015,3889.80741 841.736431,3907.02656 C809.254847,3924.24572 769.533392,3932.85529 722.572066,3932.85529 C687.351072,3932.85529 655.06516,3926.00677 625.714331,3912.30971 C596.363503,3898.61266 571.317462,3880.0238 550.57621,3856.54314 C529.834958,3833.06248 513.594166,3805.66837 501.853834,3774.36082 C490.113503,3743.05327 484.243337,3709.78899 484.243337,3674.568 L484.243337,3672.21993 C484.243337,3636.99894 490.113503,3603.93034 501.853834,3573.01413 C513.594166,3542.09793 530.03063,3514.89949 551.163227,3491.41883 C572.295823,3467.93817 597.537536,3449.54498 626.888365,3436.23927 C656.239193,3422.93356 688.133761,3416.28071 722.572066,3416.28071 C764.054571,3416.28071 801.427959,3424.49894 834.692232,3440.9354 C867.956505,3457.37187 900.633761,3480.06984 932.724,3509.02933 L1047.77925,3376.36358 C1028.99472,3357.57905 1008.64481,3340.3599 986.729525,3324.70612 C964.814239,3309.05235 940.942232,3295.74664 915.113503,3284.78899 C889.284773,3273.83135 860.520961,3265.22178 828.822066,3258.96027 C797.123171,3252.69876 762.097849,3249.568 723.746099,3249.568 C660.348309,3249.568 602.429341,3260.72131 549.989193,3283.02794 C497.549046,3305.33457 452.544442,3335.85944 414.975381,3374.60253 C377.40632,3413.34562 348.055492,3458.35023 326.922895,3509.61634 C305.790298,3560.88246 295.224,3615.86634 295.224,3674.568 L295.224,3676.91607 C295.224,3735.61772 305.790298,3790.79728 326.922895,3842.45474 C348.055492,3894.1122 377.40632,3938.92113 414.975381,3976.88154 C452.544442,4014.84194 497.157702,4044.77979 548.81516,4066.69507 C600.472619,4088.61036 656.434866,4099.568 716.701901,4099.568 Z" id="C"></path>
        </g>
    </g>
</svg>