<?xml version="1.0" encoding="UTF-8"?>
<svg width="571px" height="850px" viewBox="0 0 571 850" version="1.1" xmlns="http://www.w3.org/2000/svg" xmlns:xlink="http://www.w3.org/1999/xlink">
    <title>Group 3</title>
    <defs>
        <polygon id="path-1" points="0 0 571 0 571 850 0 850"></polygon>
    </defs>
    <g id="Desktop" stroke="none" stroke-width="1" fill="none" fill-rule="evenodd" opacity="0.105212984">
        <g id="Homepage-desktop" transform="translate(-319, -1150)">
            <g id="Group-3" transform="translate(319, 1150)">
                <mask id="mask-2" fill="white">
                    <use xlink:href="#path-1"></use>
                </mask>
                <g id="Clip-2"></g>
                <path d="M274.162455,850 C208.198556,850 154.602888,837.621359 109.252708,812.864078 C65.9638989,788.106796 28.8592058,759.223301 0,724.150485 L115.436823,594.174757 C140.173285,620.995146 162.848375,641.626214 187.584838,656.067961 C212.3213,670.509709 239.119134,678.762136 267.978339,678.762136 C303.021661,678.762136 329.819495,668.446602 350.433213,645.752427 C371.046931,623.058252 381.353791,587.985437 381.353791,540.533981 L381.353791,0 L571,0 L571,548.786408 C571,598.300971 564.815884,641.626214 550.386282,678.762136 C535.956679,715.898058 517.404332,746.84466 492.66787,771.601942 C467.931408,796.359223 434.949458,816.990291 397.844765,829.368932 C360.740072,843.81068 319.512635,850 274.162455,850" id="Fill-1" fill="#F6F6F6" mask="url(#mask-2)"></path>
            </g>
        </g>
    </g>
</svg>