<?xml version="1.0" encoding="UTF-8"?>
<svg width="160px" height="80px" viewBox="0 0 160 80" version="1.1" xmlns="http://www.w3.org/2000/svg" xmlns:xlink="http://www.w3.org/1999/xlink">
    <title>jmc-logo-hoz</title>
    <g id="Horizontal" stroke="none" stroke-width="1" fill="none" fill-rule="evenodd">
        <g id="jmc-logo-hoz" fill-rule="nonzero">
            <g id="Secondary" transform="translate(0, 40)">
                <rect id="Rectangle" fill="#434342" x="40" y="0" width="120" height="40"></rect>
                <rect id="Rectangle" fill="#DADADA" x="0" y="0" width="40" height="40"></rect>
                <path d="M50,9 L58.8954424,9 C60.6970509,9 62.3297587,9.28325123 63.7935657,9.84975369 C65.2573727,10.4162562 66.5522788,11.2093596 67.6219839,12.2857143 C68.691689,13.3054187 69.536193,14.5517241 70.0991957,15.91133 C70.6621984,17.3275862 71,18.8004926 71,20.4433498 L71,20.5 C71,22.1428571 70.7184987,23.6157635 70.0991957,25.0320197 C69.536193,26.4482759 68.691689,27.637931 67.6219839,28.6576355 C66.5522788,29.6773399 65.2573727,30.5270936 63.7935657,31.0935961 C62.2734584,31.6600985 60.6407507,32 58.8954424,32 L50,32 L50,9 L50,9 Z M58.9517426,27.4679803 C59.9651475,27.4679803 60.922252,27.2980296 61.766756,26.9581281 C62.6112601,26.6182266 63.3431635,26.1650246 63.9624665,25.5418719 C64.5817694,24.9187192 65.0321716,24.182266 65.3699732,23.3891626 C65.7077748,22.5394089 65.8766756,21.6330049 65.8766756,20.6133005 L65.8766756,20.5566502 C65.8766756,19.5369458 65.7077748,18.6305419 65.3699732,17.7807882 C65.0321716,16.9310345 64.5817694,16.1945813 63.9624665,15.5714286 C63.3431635,14.9482759 62.6112601,14.4950739 61.766756,14.1551724 C60.922252,13.8152709 59.9651475,13.6453202 58.9517426,13.6453202 L55.0670241,13.6453202 L55.0670241,27.5246305 L58.9517426,27.5246305 L58.9517426,27.4679803 Z" id="Shape" fill="#FFFFFF"></path>
                <polygon id="Path" fill="#FFFFFF" points="92 9 108.834951 9 108.834951 13.5208845 96.8414239 13.5208845 96.8414239 18.1547912 107.404531 18.1547912 107.404531 22.6756757 96.8414239 22.6756757 96.8414239 27.4791155 109 27.4791155 109 32 92 32"></polygon>
                <polygon id="Path" fill="#FFFFFF" points="129 9 134.594595 9 140.584767 25.0831296 146.574939 9 152 9 142.732187 32 138.267813 32"></polygon>
                <path d="M20.5,16 C22.4508197,16 24,17.5619835 24,19.4710744 C24,21.4380165 22.4508197,23 20.5,23 C18.5491803,23 17,21.4380165 17,19.4710744 C17,17.5041322 18.4918033,16 20.5,16 Z" id="Path" fill="#434342"></path>
            </g>
            <g id="Primary">
                <rect id="Rectangle" fill="#268383" x="0" y="0" width="40" height="40"></rect>
                <rect id="Rectangle" fill="#FCC56F" x="40" y="0" width="40" height="40"></rect>
                <rect id="Rectangle" fill="#CD4B37" x="80" y="0" width="40" height="40"></rect>
                <path d="M18.6823105,32 C16.833935,32 15.33213,31.6650485 14.0613718,30.9951456 C12.8483755,30.3252427 11.8086643,29.5436893 11,28.5946602 L14.234657,25.0776699 C14.9277978,25.8033981 15.5631769,26.3616505 16.2563177,26.7524272 C16.9494585,27.1432039 17.700361,27.3665049 18.5090253,27.3665049 C19.4909747,27.3665049 20.2418773,27.0873786 20.8194946,26.473301 C21.3971119,25.8592233 21.6859206,24.9101942 21.6859206,23.6262136 L21.6859206,9 L27,9 L27,23.8495146 C27,25.1893204 26.8267148,26.3616505 26.4223827,27.3665049 C26.0180505,28.3713592 25.4981949,29.2087379 24.8050542,29.8786408 C24.1119134,30.5485437 23.1877256,31.1067961 22.1480144,31.4417476 C21.1083032,31.8325243 19.9530686,32 18.6823105,32 Z" id="Path" fill="#F6F6F6"></path>
                <polygon id="Path" fill="#F6F6F6" points="49 9 54.4384236 9 60.5 18.7199017 66.5615764 9 72 9 72 31.9434889 67.0147783 31.9434889 67.0147783 16.968059 60.5566502 26.8009828 60.4433498 26.8009828 54.0418719 17.0810811 54.0418719 32 49.0566502 32 49.0566502 9"></polygon>
                <path d="M101.611111,32 C99.9444444,32 98.4444444,31.7142857 97,31.0857143 C95.5555556,30.4571429 94.3333333,29.6 93.3333333,28.5714286 C92.2777778,27.4857143 91.5,26.2285714 90.8888889,24.8 C90.2777778,23.3714286 90,21.7714286 90,20.1142857 L90,20.0571429 C90,18.4 90.2777778,16.8571429 90.8888889,15.3714286 C91.4444444,13.9428571 92.2777778,12.6285714 93.3333333,11.5428571 C94.3888889,10.4571429 95.6111111,9.6 97.0555556,8.97142857 C98.5,8.34285714 100.111111,8 101.833333,8 C102.888889,8 103.833333,8.11428571 104.722222,8.28571429 C105.611111,8.45714286 106.388889,8.68571429 107.111111,9.02857143 C107.833333,9.31428571 108.5,9.71428571 109.055556,10.1714286 C109.666667,10.6285714 110.222222,11.0857143 110.722222,11.6571429 L107.555556,15.4285714 C106.666667,14.6285714 105.777778,13.9428571 104.888889,13.4857143 C104,13.0285714 102.944444,12.8 101.833333,12.8 C100.888889,12.8 100,12.9714286 99.2222222,13.3714286 C98.3888889,13.7714286 97.7222222,14.2857143 97.1666667,14.9142857 C96.6111111,15.6 96.1111111,16.3428571 95.8333333,17.2 C95.5,18.0571429 95.3333333,19.0285714 95.3333333,20 L95.3333333,20.0571429 C95.3333333,21.0285714 95.5,22 95.8333333,22.8571429 C96.1666667,23.7142857 96.6111111,24.5142857 97.1666667,25.2 C97.7222222,25.8857143 98.4444444,26.4 99.2222222,26.8 C100.055556,27.2 100.888889,27.3714286 101.888889,27.3714286 C103.166667,27.3714286 104.277778,27.1428571 105.166667,26.6285714 C106.055556,26.1142857 106.944444,25.4857143 107.833333,24.6285714 L111,27.8857143 C110.444444,28.5142857 109.833333,29.0857143 109.222222,29.6 C108.611111,30.1142857 107.888889,30.5714286 107.166667,30.9142857 C106.444444,31.2571429 105.611111,31.5428571 104.722222,31.7714286 C103.666667,31.8857143 102.722222,32 101.611111,32 Z" id="Path" fill="#F6F6F6"></path>
            </g>
        </g>
    </g>
</svg>