<?xml version="1.0" encoding="UTF-8"?>
<svg width="472px" height="90px" viewBox="0 0 472 90" version="1.1" xmlns="http://www.w3.org/2000/svg" xmlns:xlink="http://www.w3.org/1999/xlink">
    <title>logo-doterra</title>
    <g id="Page-1" stroke="none" stroke-width="1" fill="none" fill-rule="evenodd">
        <g id="logo-doterra" transform="translate(0.5718, 0.0001)">
            <path d="M249.804004,82.105296 L249.804004,84.736876 C249.804004,85.263192 249.540846,85.789508 249.277688,86.052666 C249.277688,86.315824 249.01453,86.578982 248.751372,86.578982 L208.751356,86.578982 C207.698724,86.578982 206.382934,86.578982 205.59346,86.052666 C204.803986,85.263192 204.27767,83.947402 204.27767,82.89477 L204.27767,7.89474 C204.27767,6.57895 204.540828,5.526318 205.59346,4.736844 C206.90925,4.210528 207.698724,3.421054 208.751356,3.421054 L247.172424,3.421054 C247.69874,3.421054 247.69874,3.421054 248.488214,4.210528 L249.01453,4.736844 L249.01453,6.052634 C249.01453,6.57895 249.540846,7.368424 249.540846,7.89474 C249.540846,8.684214 249.277688,9.21053 249.01453,10.000004 L249.01453,12.105268 C248.751372,12.105268 248.488214,12.368426 248.488214,12.631584 L215.067148,12.631584 L215.067148,38.947384 L242.698738,38.947384 C243.225054,38.947384 243.225054,38.947384 244.014528,39.4737 L244.540844,40.000016 L244.540844,41.315806 C245.330318,42.368438 245.330318,44.210544 244.540844,45.263176 L244.540844,46.578966 L244.014528,47.105282 C243.488212,47.631598 243.488212,47.631598 242.698738,47.631598 L215.067148,47.631598 L215.067148,77.105294 L247.961898,77.105294 L249.01453,78.157926 C249.540846,78.684242 249.540846,78.684242 249.540846,79.473716 L249.540846,82.105296 L249.804004,82.105296 Z M305.067184,26.3158 C305.067184,28.421064 304.540868,30.26317 303.751394,32.105276 C303.225078,33.947382 302.435594,35.52633 301.119814,36.84212 C299.540866,38.15791 297.69876,38.947384 295.856654,39.4737 C293.225074,40.263174 290.593494,40.78949 287.961914,40.78949 L277.435594,40.78949 L277.435594,12.631584 L291.909284,12.631584 C292.961916,13.1579 294.014548,13.421058 295.330338,13.1579 C301.382972,14.47369 305.5935,20.000008 305.067184,26.3158 Z M321.38298,85.52635 L321.38298,86.052666 C321.38298,86.315824 321.119822,86.578982 320.856664,86.578982 C320.330348,87.105298 319.540874,87.368456 318.7514,87.105298 L312.961924,87.105298 C312.17245,87.105298 311.382976,86.84214 310.85666,86.578982 C310.593502,86.578982 310.330344,86.315824 310.330344,86.052666 C310.330344,85.52635 309.804028,85.52635 309.804028,84.736876 L301.909288,65.000026 C301.382972,62.894762 300.593498,60.789498 299.277708,58.947392 C298.488234,56.842128 297.435602,55.26318 296.119812,53.684232 C294.804022,52.368442 293.225074,51.31581 291.382968,50.526336 C289.277704,50.00002 286.909274,49.736862 284.804018,50.00002 L277.698752,50.00002 L277.698752,85.52635 C277.698752,85.789508 277.435594,86.052666 277.172436,86.052666 C277.172436,86.578982 277.172436,86.578982 276.64612,86.578982 C276.119804,86.578982 276.119804,87.105298 275.33033,87.105298 L269.277696,87.105298 C268.75138,87.105298 268.75138,86.578982 267.961906,86.578982 C267.172432,86.578982 267.43559,86.578982 267.43559,86.052666 C267.172432,86.052666 266.909274,85.789508 266.909274,85.52635 L266.909274,7.89474 C266.909274,6.57895 267.172432,5.526318 268.225064,4.736844 C269.014538,3.94737 269.804012,3.684212 270.856644,3.421054 L294.014548,3.421054 C295.330338,3.94737 296.646128,4.210528 297.961918,4.210528 C300.856656,4.736844 303.751394,5.526318 306.382974,6.842108 C308.488238,8.157898 310.593502,9.736846 312.17245,11.315794 C313.751398,13.1579 315.330346,15.526322 316.11982,17.894744 C316.909294,20.526324 317.43561,23.157904 317.43561,25.789484 C317.43561,28.157906 316.909294,30.789486 316.11982,33.157908 C315.593504,35.263172 314.540872,37.368436 312.961924,38.947384 C311.646134,40.78949 309.804028,42.368438 307.698764,43.42107 C305.5935,44.73686 303.488236,45.789492 301.119814,46.578966 L305.067184,48.68423 L308.22508,51.842126 C309.014554,53.421074 309.804028,55.000022 310.85666,56.315812 C311.646134,58.421076 312.435608,60.263182 313.48824,62.368446 L320.856664,80.789506 C321.38298,82.105296 321.38298,83.421086 322.172454,83.947402 L321.38298,85.52635 Z M374.804054,26.3158 C375.067212,23.421062 374.277738,20.789482 372.69879,18.42106 C371.119842,15.78948 368.488262,13.947374 365.330366,13.1579 C364.014576,13.1579 362.698786,12.894742 361.382996,12.631584 L347.172464,12.631584 L347.172464,41.052648 L358.488258,41.052648 C360.85668,41.052648 363.48826,40.526332 365.593524,39.736858 C367.43563,39.210542 369.277736,38.421068 370.856684,37.105278 C372.435632,35.789488 373.488264,34.21054 374.277738,32.368434 C374.804054,30.26317 375.067212,28.421064 374.804054,26.3158 L374.804054,26.3158 Z M391.909324,85.52635 L390.856692,86.578982 C390.330376,87.105298 389.540902,87.368456 388.751428,87.105298 L382.961952,87.105298 L380.330372,86.052666 C380.330372,85.52635 380.330372,85.52635 379.804056,84.736876 L372.435632,65.000026 C371.646158,62.894762 370.856684,61.052656 369.804052,58.947392 C368.75142,57.105286 367.43563,55.26318 365.856682,53.684232 C364.540892,52.368442 362.961944,51.31581 361.382996,50.526336 C359.54089,50.00002 357.435626,49.736862 355.59352,50.00002 L347.69878,50.00002 L347.69878,86.052666 C347.69878,86.315824 347.435622,86.578982 347.17246,86.578982 C346.646148,86.578982 345.856674,87.105298 345.0672,87.105298 L339.80404,87.105298 C339.277724,87.105298 338.48825,86.578982 337.698776,86.578982 C337.435618,86.578982 337.17246,86.315824 337.17246,86.052666 L337.17246,7.89474 C337.17246,6.052634 337.17246,5.26316 338.48825,4.736844 C339.014566,3.94737 340.067198,3.421054 341.11983,3.421054 L364.014576,3.421054 C365.067208,3.94737 366.11984,4.210528 367.172472,4.210528 C370.06721,4.736844 372.961948,5.526318 375.856686,6.842108 C378.225108,7.89474 380.330372,9.473688 381.646162,11.315794 C383.488268,13.1579 384.804058,15.263164 385.593532,17.894744 C386.383006,20.526324 386.909322,23.157904 386.909322,25.789484 C386.909322,28.157906 386.383006,30.789486 385.593532,33.157908 C385.330374,35.52633 384.277742,37.631594 382.435636,38.947384 C381.119846,40.78949 379.540898,42.368438 377.698792,43.42107 C375.593528,44.73686 372.961948,45.526334 371.119842,46.578966 C372.435632,47.105282 373.488264,47.631598 374.540896,48.68423 C375.856686,50.00002 377.172476,50.789494 377.698792,51.842126 C379.014582,53.157916 379.804056,54.736864 380.330372,56.315812 C381.646162,58.157918 382.435636,60.000024 382.961952,62.368446 L390.330376,80.789506 C390.856692,81.842138 391.383008,82.89477 391.646166,83.947402 C391.383008,84.736876 391.909324,84.736876 391.909324,85.52635 Z M434.804078,14.47369 L420.330388,56.57897 L449.277768,56.57897 L434.804078,14.47369 Z M470.330408,82.89477 C470.330408,84.21056 470.856724,85.000034 470.856724,85.52635 C470.856724,86.052666 470.593566,86.578982 470.330408,86.84214 C469.804092,86.84214 469.804092,87.368456 468.225144,87.368456 L462.435668,87.368456 C461.119878,87.368456 461.119878,87.368456 460.330404,86.84214 L459.277772,85.789508 L451.909348,65.526342 L417.698808,65.526342 L410.330384,85.789508 L410.330384,86.315824 C409.804068,86.84214 409.804068,86.84214 409.014594,86.84214 C409.014594,87.368456 408.488278,87.368456 407.698804,87.368456 L401.909328,87.368456 C401.119854,87.368456 400.593538,87.105298 399.804064,86.84214 C399.804064,86.315824 399.277748,86.315824 399.277748,85.52635 C399.277748,84.736876 399.804064,84.21056 399.804064,82.89477 L427.435654,5.26316 C427.96197,4.736844 427.96197,4.736844 427.96197,3.94737 C428.488286,3.94737 428.488286,3.94737 429.27776,3.157896 L440.593554,3.157896 C440.593554,3.94737 441.11987,3.94737 441.909344,3.94737 C441.909344,4.473686 441.909344,4.473686 442.43566,5.26316 L470.330408,82.89477 Z M457.172508,9.21053 L457.698824,9.21053 C458.22514,9.21053 459.014614,9.21053 459.014614,8.684214 C459.014614,7.89474 458.488298,7.368424 457.698824,7.368424 L457.172508,7.368424 L457.172508,9.21053 Z M457.172508,13.1579 L455.067244,13.1579 L455.067244,6.57895 C455.59356,6.57895 457.172508,6.052634 457.698824,6.052634 C459.014614,6.052634 459.804088,6.57895 460.330404,6.57895 C460.330404,7.105266 460.85672,7.105266 460.85672,7.89474 C460.85672,8.684214 460.330404,9.21053 458.751456,10.000004 C459.54093,10.000004 460.067244,10.52632 460.067244,11.315794 C460.593562,12.631584 460.593562,12.631584 460.593562,13.421058 L459.277772,13.421058 C458.751456,12.894742 458.488298,12.105268 458.751456,11.315794 C458.751456,10.789478 458.22514,10.789478 457.435666,10.789478 L456.90935,10.789478 L456.90935,13.1579 L457.172508,13.1579 Z M457.698824,4.473686 C455.330402,4.473686 453.225138,6.315792 453.225138,8.947372 L453.225138,9.21053 C452.96198,11.84211 454.804086,14.210532 457.172508,14.473686 L457.698824,14.473686 C460.330404,14.736848 462.698826,12.631584 462.961984,10.000004 L462.961984,9.21053 C462.961984,6.57895 460.85672,4.473686 458.22514,4.736844 C457.961982,4.736844 457.961982,4.736844 457.698824,4.473686 Z M457.698824,3.157896 C461.119878,2.894738 464.014616,5.526318 464.277774,8.684214 L464.277774,8.947372 C464.540932,12.368426 461.909352,15.263164 458.488298,15.526322 L457.698824,15.526322 C454.27777,15.526322 451.383032,12.631584 451.383032,9.21053 C451.383032,6.052634 454.27777,3.157896 457.698824,3.157896 L457.698824,3.157896 Z M191.11977,7.89474 L191.11977,10.52632 C191.11977,11.052636 190.593454,11.052636 190.593454,11.84211 L189.540822,12.894742 L165.856602,12.894742 L165.856602,85.789508 C165.856602,86.315824 165.330286,86.315824 164.540812,86.315824 C164.277654,86.578982 163.751338,86.84214 163.225022,86.84214 L157.961862,86.84214 C157.435546,86.84214 156.646072,86.315824 156.119756,86.315824 C155.856598,86.315824 155.59344,86.052666 155.59344,85.789508 L155.067124,85.263192 L155.067124,13.1579 L131.382904,13.1579 L130.59343,12.631584 C130.330272,12.631584 130.067114,12.368426 130.067114,12.105268 C129.540798,11.578952 129.540798,11.578952 129.540798,10.789478 L129.540798,6.315792 C129.540798,5.789476 129.540798,5.000002 130.067114,5.000002 C130.067114,4.473686 130.067114,4.473686 130.59343,4.473686 C130.59343,4.210528 130.856588,3.684212 131.119746,3.684212 L189.014506,3.684212 C189.277664,3.684212 189.80398,3.94737 189.80398,4.210528 C190.067138,4.210528 190.330296,4.473686 190.330296,4.736844 C190.593454,5.000002 190.856612,5.526318 190.856612,6.052634 L190.856612,7.89474 L191.11977,7.89474 Z M114.80395,55.789496 C114.80395,58.947392 114.80395,62.105288 114.277634,65.000026 C113.48816,67.631606 112.435528,70.000028 111.119738,72.36845 C109.54079,74.473714 107.435526,76.052662 105.330262,76.842136 C102.96184,78.157926 100.067102,78.421084 97.4355216,78.157926 C94.5407776,78.421084 91.6460456,77.894768 88.7513076,76.842136 C86.6460436,75.526346 84.8039376,73.68424 83.4881476,71.578976 C81.9091996,69.473712 81.1197256,66.842132 80.8565676,64.210552 C80.0670936,61.315814 79.5407776,58.157918 79.5407776,55.000022 C79.5407776,51.842118 80.0670936,48.947388 80.8565676,45.789492 C81.6460416,43.157912 82.6986736,40.78949 84.2776216,38.684226 C85.5934116,36.842118 87.4355176,35.263172 89.5407776,33.947382 C92.1723616,32.631592 95.0670996,31.842118 98.2249956,31.842118 C101.119734,31.842118 104.014472,32.368434 106.646052,33.947382 C108.751316,35.263172 110.593422,37.105278 111.909212,39.210542 C113.225002,41.578964 114.014476,43.947386 114.540792,46.315808 C114.80395,49.736862 115.067108,52.894758 114.80395,55.789496 L114.80395,55.789496 Z M126.119744,55.26318 C126.119744,59.473708 125.593428,63.684236 124.01448,67.894764 C123.225006,71.842134 121.3829,75.526346 118.75132,78.421084 C116.382898,81.315822 113.225002,83.684244 109.54079,85.000034 C105.330262,86.84214 100.856576,87.894772 96.3828896,87.631614 C92.4355196,87.631614 88.2249916,87.105298 84.5407796,85.789508 C80.8565676,84.736876 77.6986716,82.368454 75.3302496,79.210558 C72.9618276,76.31582 71.3828796,72.894766 70.0670896,69.473712 C69.0144576,65.263184 68.4881416,60.789498 68.7512996,56.315812 C68.7512996,51.842126 69.2776156,47.631598 70.0670896,43.157912 C71.3828796,39.4737 73.2249856,36.052646 76.1197236,33.157908 C78.4881456,30.000012 81.6460416,27.368432 85.3302536,25.789484 C89.2776236,24.473694 93.4881516,23.68422 97.9618376,23.68422 C102.172366,23.68422 106.382894,24.210536 110.330264,25.789484 C113.751318,26.842116 116.909214,29.210538 119.014478,32.368434 C121.646058,35.000014 123.488164,38.421068 124.277638,42.368438 C125.593428,46.315808 126.382902,50.789494 126.119744,55.26318 Z M41.9091836,44.73686 C39.5407616,41.578964 36.6460236,38.947384 33.4881276,36.84212 C31.3828636,35.000014 28.4881256,33.684224 25.5933816,33.684224 C22.9618076,33.684224 20.5933816,34.21054 18.2249636,35.789488 C16.3828576,37.105278 14.8039096,38.947384 13.7512776,41.052648 C13.2249616,43.157912 11.6460136,45.789492 11.1196976,48.421072 C11.1196976,51.052652 10.5933816,53.684224 10.5933816,56.315812 C10.5933816,59.473708 11.1196976,62.368446 11.1196976,65.000026 C11.6460136,67.631606 12.4354876,70.526344 13.7512776,72.894766 C14.8039096,75.00003 16.3828576,76.842136 18.2249636,78.157926 C20.0670696,79.473716 22.4354916,80.26319 24.8039136,80.26319 C26.1197036,80.26319 27.4354936,79.736874 28.7512836,79.736874 L32.6986536,77.63161 C34.2776016,76.842136 35.8565496,75.789504 37.1723396,74.473714 C38.4881296,72.36845 39.8039196,71.315818 41.9091836,68.684238 L41.9091836,44.73686 Z M52.4355036,85.52635 L52.4355036,86.84214 C52.1723456,86.84214 51.9091876,87.105298 51.9091876,87.368456 L44.0144476,87.368456 C44.0144476,87.105298 43.7512896,86.84214 43.4881316,86.84214 L43.4881316,78.421084 C40.5933936,81.57898 37.4354976,83.947402 33.7512856,85.789508 C30.5933896,87.894772 26.9091776,88.947404 23.2249656,88.947404 C19.5407536,88.947404 15.8565416,87.894772 12.6986456,86.315824 C9.8039076,84.736876 7.4354856,82.368454 5.3302216,79.736874 C3.2249576,76.578978 1.9091676,72.894766 1.3828516,69.210554 C0.330219605,65.263184 -0.196096395,61.315814 0.0670616047,57.368444 C-0.196096395,52.894758 0.330219605,48.421072 1.3828516,44.210544 C2.1723256,40.526332 3.7512736,36.84212 6.1196956,33.684224 C7.9618016,30.526328 10.5933816,28.421064 14.0144356,27.105274 C17.4354896,25.526326 20.8565436,24.736852 24.5407556,24.473694 C27.6986516,24.210536 31.1197056,25.263168 33.7512856,27.105274 C37.1723396,28.421064 40.0670776,30.789486 42.4354996,33.947382 L42.4354996,3.94737 C42.9618156,3.157896 42.9618156,3.157896 43.7512896,3.157896 C44.0144476,2.894738 44.5407636,2.63158 45.0670796,2.63158 L50.3302396,2.63158 C50.8565556,2.63158 51.3828716,2.894738 51.6460296,3.157896 C52.1723456,3.157896 52.1723456,3.157896 52.9618196,3.94737 L52.4355036,85.52635 Z" id="Shape" fill="#FFFFFF"></path>
            <polygon id="Path" points="1.9091676 0 470.06725 0 470.06725 90.000036 1.9091676 90.000036"></polygon>
            <polygon id="Path" points="1.9091676 1.842106 470.06725 1.842106 470.06725 88.421088 1.9091676 88.421088"></polygon>
            <path d="M80.8565676,12.631584 C78.7513036,12.631584 78.7513036,9.473688 78.7513036,7.89474 C78.7513036,6.315792 78.7513036,3.157896 80.8565676,3.157896 L113.751318,3.157896 C116.382898,3.157896 116.382898,6.57895 116.382898,7.89474 C116.382898,9.21053 116.382898,12.631584 113.751318,12.631584 L80.8565676,12.631584 Z" id="Path" fill="#FFFFFF"></path>
        </g>
    </g>
</svg>