<?xml version="1.0" encoding="UTF-8"?>
<svg width="160px" height="52px" viewBox="0 0 160 52" version="1.1" xmlns="http://www.w3.org/2000/svg" xmlns:xlink="http://www.w3.org/1999/xlink">
    <title>logo-worcester-bosch</title>
    <g id="Page-1" stroke="none" stroke-width="1" fill="none" fill-rule="evenodd">
        <g id="logo-worcester-bosch" transform="translate(-0, -0.0002)" fill="#FFFFFF" fill-rule="nonzero">
            <path d="M32.3197294,2.94609699 C32.3197294,2.94609699 35.9760651,0.125082458 39.5918515,0.0364095817 C39.5918515,0.0364095817 46.8639735,-0.895524957 46.1763615,6.67035778 C46.1763615,6.67035778 44.1471729,0.132906535 35.1780211,5.57759498 L13.9043249,21.9725143 L13.8991484,21.943826 C13.8991484,21.943826 10.2462637,24.7648405 6.63047734,24.852644 C6.63047734,24.852644 -0.642507454,25.7845786 0.0459672633,18.2178265 C0.0459672633,18.2178265 2.0630774,24.7378909 11.0443077,19.2775543 L11.0555235,19.2297405 L32.3197294,2.94609699 Z" id="Fill-1"></path>
            <path d="M32.3194203,10.9450989 C32.3194203,10.9450989 35.9758065,8.12515007 39.5933685,8.03648337 C39.5933685,8.03648337 46.8647283,7.10548301 46.1762441,14.6699696 C46.1762441,14.6699696 44.1470274,8.13384288 35.1777515,13.5772829 L13.9054866,29.9719298 L13.8985845,29.9423742 C13.8985845,29.9423742 10.2456494,32.762323 6.63067572,32.8527283 C6.63067572,32.8527283 -0.643272413,33.7837286 0.0460745878,26.2183728 C0.0460745878,26.2183728 2.06234986,32.7379831 11.0445672,27.2762882 L11.0557831,27.2284777 L32.3194203,10.9450989 Z" id="Fill-4"></path>
            <path d="M37.9687403,32.000158 L42.4742594,32.000158 L43.7508522,25.7234873 C44.1252962,23.7061363 44.2010558,23.2299808 44.4074354,21.2353439 C44.7078614,23.434408 44.8019078,24.0005787 45.232083,26.1988015 L46.4346578,32.000158 L50.9210194,32.000158 L54.2222222,16.000158 L50.1512322,16.000158 L48.8363242,23.0936961 C48.536769,24.8847471 48.4610094,25.3827754 48.2729166,27.1502711 C48.1039814,25.4282037 48.049121,24.9520482 47.6546486,22.9574113 L46.2099914,16.000158 L42.6606106,16.000158 L41.2908423,22.9574113 C40.9155275,24.90662 40.8606671,25.3827754 40.6342591,27.1729852 C40.4844815,25.4054895 40.4087219,24.9301754 40.0534355,22.9801254 L38.7585559,16.000158 L34.6666667,16.000158 L37.9687403,32.000158 Z" id="Fill-6"></path>
            <path d="M76.0475907,19.3501869 C76.7677434,19.3501869 78.0592287,19.3947083 78.0592287,21.2284879 C78.0592287,23.0387468 76.7497824,23.0832682 76.066407,23.0832682 L74.351554,23.0832682 L74.351554,19.3501869 L76.0475907,19.3501869 Z M70.2222222,32.000158 L74.351554,32.000158 L74.351554,26.3652549 L75.5686292,26.3652549 L78.0951508,32.000158 L82.6666667,32.000158 L79.4952577,25.5504284 C80.1033677,25.2555788 80.6575945,25.0069307 81.1741886,24.3290287 C82.1132952,23.1521505 82.1688889,21.7257841 82.1688889,21.1150843 C82.1688889,19.5761542 81.6522948,17.4038436 79.920336,16.4974542 C79.1266285,16.090881 77.9488965,16.000158 76.7121497,16.000158 L70.2222222,16.000158 L70.2222222,32.000158 Z" id="Fill-8"></path>
            <polygon id="Fill-10" points="98.6666667 32.000158 109.333333 32.000158 109.333333 28.5333091 102.723076 28.5333091 102.723076 25.3600613 108.392973 25.3600613 108.392973 21.8923711 102.723076 21.8923711 102.723076 19.5124352 108.790462 19.5124352 108.790462 16.000158 98.6666667 16.000158"></polygon>
            <polygon id="Fill-12" points="122.666667 19.9608867 125.953305 19.9608867 125.953305 32.000158 130.045843 32.000158 130.045843 19.9608867 133.333333 19.9608867 133.333333 16.000158 122.666667 16.000158"></polygon>
            <polygon id="Fill-14" points="134.222222 32.000158 144.888889 32.000158 144.888889 28.5333091 138.27843 28.5333091 138.27843 25.3600613 143.94838 25.3600613 143.94838 21.8923711 138.27843 21.8923711 138.27843 19.5124352 144.346772 19.5124352 144.346772 16.000158 134.222222 16.000158"></polygon>
            <path d="M153.379599,19.3501869 C154.099905,19.3501869 155.391666,19.3947083 155.391666,21.2284879 C155.391666,23.0387468 154.08194,23.0832682 153.399275,23.0832682 L151.686623,23.0832682 L151.686623,19.3501869 L153.379599,19.3501869 Z M147.555556,32.000158 L151.686623,32.000158 L151.686623,26.3652549 L152.900536,26.3652549 L155.427595,32.000158 L160.000086,32.000158 L156.828856,25.5504284 C157.435385,25.2555788 157.990585,25.0069307 158.506434,24.3290287 C159.447452,23.1521505 159.502202,21.7257841 159.502202,21.1150843 C159.502202,19.5761542 158.986353,17.4038436 157.252314,16.4974542 C156.459293,16.090881 155.28131,16.000158 154.0443,16.000158 L147.555556,16.000158 L147.555556,32.000158 Z" id="Fill-16"></path>
            <path d="M93.8264983,21.757731 C93.1644281,20.6022105 92.0882479,19.8502321 90.8737498,19.8502321 C88.8630808,19.8502321 87.2336292,21.9094831 87.2336292,24.4519672 C87.2336292,26.9936036 88.8630808,29.0545502 90.8737498,29.0545502 C92.0570421,29.0545502 93.0775578,28.3288528 93.7421581,27.2233512 L96.8888889,29.2639512 C95.5672788,31.4554555 93.3643143,32.8890469 90.8737498,32.8890469 C86.8313267,32.8890469 83.5555556,29.112199 83.5555556,24.4519672 C83.5555556,19.7925832 86.8313267,16.0157353 90.8737498,16.0157353 C90.8737498,16.0157353 94.3443468,15.5460667 96.6409289,19.7646066 L93.8264983,21.757731 Z" id="Fill-19"></path>
            <path d="M110.222222,29.8345934 C110.817484,30.7126652 111.542803,31.6091173 113.390282,32.4161747 C114.386554,32.8506156 115.458692,32.8890469 116.445792,32.8890469 C117.173613,32.8890469 119.822277,32.8890469 121.480507,30.8404911 C122.077436,30.0969288 122.771074,28.923103 122.653522,27.2588603 C122.387572,23.4608445 118.992746,23.120811 116.065625,22.5134292 C114.929292,22.2652967 114.605817,21.7640187 114.605817,20.997899 C114.605817,20.1874997 115.53039,19.4957361 116.240702,19.4957361 C116.90933,19.4957361 117.940616,19.5684214 118.705119,20.0187361 C119.281206,20.3796562 119.444611,20.6018894 119.650535,20.916859 L121.961551,18.5190796 C121.495513,17.9334199 121.459664,17.7512889 120.470896,17.1664647 C119.389587,16.5131324 118.161547,16.000158 116.651716,16.000158 C114.285676,16.000158 111.970491,16.9784854 111.110946,19.3211243 C110.870007,19.9510636 110.73995,20.6720683 110.73995,21.3705156 C110.73995,24.7240649 113.203533,25.5712246 114.416567,25.9538668 C114.955137,26.1100984 117.391208,26.5503875 117.85808,26.7534051 C118.585067,27.0458172 118.57673,28.1210583 118.558388,28.2330104 C118.384979,29.3124289 116.932673,29.4193682 116.596692,29.4193682 C115.962246,29.4193682 115.291118,29.2831877 114.75088,29.0592835 C113.612046,28.6081334 113.104323,27.9890552 112.61911,27.3975472 L110.222222,29.8345934 Z" id="Fill-21"></path>
            <path d="M61.3513872,16.000158 C56.5658617,16.000158 54.2222222,19.9823502 54.2222222,24.5003649 C54.2222222,28.1010247 55.8546247,32.8890469 61.2766527,32.8890469 C66.4727979,32.8890469 68.4444444,28.3240744 68.4444444,24.3209189 C68.4444444,20.564292 66.5861592,16.000158 61.3513872,16.000158 M61.3396312,19.9823502 C61.7779615,19.9823502 63.6605984,20.0502714 64.405424,22.2623209 C64.6245892,22.8954131 64.6909265,23.5947495 64.6909265,24.362007 C64.6909265,27.3639544 63.3112777,28.9672291 61.3396312,28.9672291 C59.0178242,28.9672291 57.9228382,27.2968717 57.9228382,24.5204897 C57.9228382,21.2233788 59.5871498,19.9823502 61.3396312,19.9823502" id="Fill-23"></path>
            <path d="M39.3052447,46.013103 L41.1004044,46.013103 C41.4522323,46.013103 41.6164186,46.0391728 41.7688774,46.1029987 C42.004267,46.1901976 42.3435295,46.4428046 42.3435295,47.0963464 C42.3435295,47.4613231 42.214526,47.6635884 42.1207052,47.7768571 C41.8509705,48.0789067 41.4874151,48.1409347 40.7485766,48.1670045 L39.3052447,48.1670045 L39.3052447,46.013103 Z M37.3333333,40.8890469 L37.3333333,49.7779358 L41.1824976,49.7779358 C41.9799741,49.752765 42.7782882,49.7159078 43.4584888,49.2241782 C44.3271685,48.6074935 44.4444444,47.6887592 44.4444444,47.2986118 C44.4444444,46.8572238 44.3271685,46.5291044 44.2568029,46.3780796 C44.0565961,45.9384896 43.6578579,45.4593454 42.6844675,45.2714633 C42.5789191,45.2453936 42.4725331,45.2202227 42.3552571,45.2076373 C42.7305402,45.1204385 42.8478161,45.0817833 43.0480229,44.9936855 C43.4115784,44.8174899 44.1269617,44.3266593 44.1269617,43.1679034 C44.1269617,42.5008772 43.8932475,42.085559 43.7282235,41.8590217 C43.1652989,41.0526571 42.2505465,40.9528729 41.3935943,40.9016323 C41.1824976,40.9016323 40.9596733,40.8890469 40.7360113,40.8890469 L37.3333333,40.8890469 Z M39.3052447,42.5512188 L41.0878392,42.5512188 C41.3232288,42.5512188 41.4522323,42.5772886 41.5577807,42.6141458 C42.0629049,42.7903414 42.09725,43.2443148 42.09725,43.4321969 C42.09725,43.6344622 42.0503397,43.785487 42.0268845,43.8475151 C41.9573566,44.0497805 41.8040602,44.2763177 41.3349563,44.3635165 C41.17077,44.3886873 40.8775801,44.4021717 40.8658525,44.4021717 L39.3052447,44.4021717 L39.3052447,42.5512188 Z" id="Fill-25"></path>
            <path d="M49.1486101,43.6757421 C47.4753542,43.5859035 46.5631628,44.1931165 46.1070671,44.6759992 C45.3595769,45.472515 45.3333333,46.429457 45.3333333,46.7663519 C45.3333333,47.9912056 45.8907836,48.7099147 46.2835327,49.0460075 C47.1966291,49.8328978 48.5404825,49.8890469 48.8825542,49.8890469 C50.1241481,49.8890469 50.8978818,49.4839709 51.2779616,49.2032251 C51.7331523,48.8663302 52.4444444,48.1035039 52.4444444,46.7767796 C52.4444444,45.8334738 52.0516954,44.8997936 51.2272843,44.3046126 C50.6055824,43.8666492 49.9214389,43.7094316 49.1486101,43.6757421 M48.7685303,45.0353537 C49.2879726,45.0128941 49.5920364,45.147652 49.769407,45.2599504 C50.1494867,45.4957768 50.4662198,45.9457721 50.4662198,46.8329288 C50.4662198,47.7088555 49.9847855,48.5061735 48.9069879,48.5061735 C48.1721671,48.5061735 47.7920873,48.1363912 47.6400554,47.9342543 C47.5133622,47.754577 47.2979837,47.3278434 47.2979837,46.7551221 C47.2979837,45.889623 47.7160714,45.3947083 48.0717174,45.2038012 C48.3495376,45.0690432 48.679845,45.0465836 48.7685303,45.0353537" id="Fill-27"></path>
            <path d="M57.3697027,45.533893 C57.2575425,45.4551613 57.1462725,45.3764295 57.0207598,45.3097484 C56.6718169,45.1177393 56.1484025,44.9490283 55.7371483,44.9490283 C55.4620887,44.9490283 55.2137339,45.0060686 55.125608,45.0502549 C54.8888253,45.1402341 54.8274042,45.2976977 54.8274042,45.3989243 C54.8274042,45.5113983 54.9021777,45.6126248 55.0009855,45.6809126 C55.1879192,45.7933866 55.6623748,45.8600676 55.874233,45.8938098 L56.7341281,46.0633242 C57.7569226,46.2995196 58.6666667,46.7381682 58.6666667,47.829166 C58.6666667,48.3136076 58.4672707,48.6630803 58.3551105,48.8084932 C57.7809569,49.5845637 56.5845811,49.8890469 55.5991734,49.8890469 C55.2502305,49.8890469 54.1660149,49.8328099 53.217994,49.3041821 C52.8316643,49.0904815 52.5690669,48.8542861 52.4444444,48.7522562 L53.6666349,47.762485 C53.7787951,47.8637116 53.8918455,47.9649382 54.016468,48.04367 C54.4392942,48.3481531 55.02591,48.5722978 55.5626768,48.5722978 C55.6490224,48.5722978 55.824384,48.5618537 56.0353521,48.5160608 C56.3228739,48.4606271 56.7092036,48.3136076 56.7092036,47.9882364 C56.6967414,47.5825266 56.123478,47.5367336 55.424702,47.435507 C54.066317,47.2330538 53.4307423,46.9518688 53.1058337,46.3662006 C52.9189,46.0528802 52.9064378,45.7700884 52.9064378,45.6351196 C52.9064378,45.4784594 52.9438245,45.1281833 53.1806072,44.7586259 C53.4797012,44.2749877 54.2158639,43.6668247 55.6623748,43.6668247 C56.073629,43.6668247 57.0341122,43.7222583 58.0186298,44.2291947 C58.2046733,44.3304213 58.380035,44.4308445 58.5545064,44.5441219 L57.3697027,45.533893 Z" id="Fill-29"></path>
            <path d="M64.2577351,45.8122527 C64.2450681,45.77858 64.1437319,45.5981909 64.0423957,45.4747246 C63.9283925,45.3512583 63.5601441,44.9920835 62.9647941,44.9920835 C62.8254568,44.9920835 62.5467824,45.0033077 62.2554408,45.1941193 C61.5831839,45.6438895 61.5587546,46.6436461 61.5587546,46.7558882 C61.5587546,47.2617795 61.74876,47.9119821 62.1921057,48.2366825 C62.3178712,48.3280797 62.5974504,48.5180896 63.0281292,48.5180896 C63.6623851,48.5068653 64.0043947,48.1356646 64.1183979,47.9897499 C64.181733,47.8999562 64.2324011,47.8334126 64.3084032,47.6417993 L65.7777778,48.3168555 C65.6384405,48.5068653 65.4873411,48.7080994 65.321765,48.8772644 C64.4477405,49.7864255 63.3194707,49.8890469 62.8381239,49.8890469 C62.5467824,49.8890469 61.9640993,49.8545725 61.2927472,49.562743 C60.0504742,49.0239808 59.5555556,47.9801291 59.5555556,46.8112076 C59.5555556,46.5426282 59.5682226,45.9806159 59.8848981,45.3296116 C60.6331572,43.790291 62.2681079,43.6668247 62.8761249,43.6668247 C63.3963776,43.6668247 64.5617437,43.7574201 65.4484352,44.7443491 C65.5244373,44.8349445 65.5751054,44.9022898 65.7026804,45.0826789 L64.2577351,45.8122527 Z" id="Fill-31"></path>
            <path d="M68.4295575,43.8984513 C68.4636622,43.8606989 68.6114495,43.6728359 68.770605,43.5469946 C69.316281,43.080483 69.861957,43.0292476 70.1120585,43.0292476 C70.908648,43.0292476 71.36419,43.4454227 71.5566382,43.6845211 C71.681689,43.8355307 71.7848153,44.0251915 71.8416565,44.2148522 C71.9439708,44.5024895 71.9772635,44.8305757 72,45.4588832 L72,49.7779358 L70.2606577,49.7779358 L70.2606577,46.3415699 C70.2492895,45.8382048 70.2825822,45.1694483 69.8505887,44.8431598 C69.7028015,44.7299026 69.5322777,44.6786673 69.361754,44.6786673 C69.270808,44.6786673 69.043443,44.7038355 68.8388145,44.8557439 C68.4636622,45.1460777 68.406821,45.5982075 68.4181892,46.5051636 L68.4181892,49.7779358 L66.6666667,49.7779358 L66.6666667,40.8890469 L68.4181892,40.8890469 L68.4295575,43.8984513 Z" id="Fill-33"></path>
            <path d="M82.7696057,43.7961424 C82.7334767,43.7365882 82.4926165,43.3545906 82.2276703,43.1291354 C81.6857348,42.640791 81.034552,42.6161185 80.7936918,42.6161185 C80.6371326,42.6161185 80.0711111,42.6280294 79.6255197,42.9147403 C79.118853,43.2363329 78.5648746,43.9739542 78.5648746,45.3215805 C78.5648746,45.4993923 78.5648746,46.6802669 79.1549821,47.3940665 C79.3717563,47.6561049 79.6607885,47.7998858 79.7691756,47.85944 C79.926595,47.9300542 80.3119713,48.0857459 80.7936918,48.0857459 C80.9382079,48.0857459 81.2031541,48.0857459 81.5291756,47.9785484 C81.6969176,47.9189942 82.214767,47.7165099 82.4676703,47.2043438 C82.6010036,46.9414546 82.6371326,46.5841294 82.6491756,46.5118136 L80.7446595,46.5118136 L80.7446595,44.9157612 L84.4444444,44.9157612 L84.4444444,49.5873624 L82.782509,49.5873624 L82.782509,48.8123071 C82.5528315,49.0156421 82.3721864,49.1585722 82.2637993,49.2300372 C81.4681004,49.7541141 80.6130466,49.7779358 80.2749821,49.7779358 C79.9739068,49.7779358 79.3476703,49.7541141 78.6371326,49.4206106 C77.094767,48.6812879 76.4444444,47.0027103 76.4444444,45.3802839 C76.4444444,44.7609203 76.5648746,42.5216826 78.5399283,41.4241839 C78.8900358,41.2225504 79.6005735,40.8890469 80.6371326,40.8890469 C82.2276703,40.8890469 83.2031541,41.6275189 83.6487455,42.0205766 C83.9498208,42.2834658 84.1433692,42.5216826 84.3842294,42.8305136 L82.7696057,43.7961424 Z" id="Fill-35"></path>
            <path d="M88.8888889,45.2690848 L88.283742,45.3624939 C88.2253432,45.3751167 87.9401201,45.4104607 87.7149885,45.4929299 C87.2291782,45.65871 87.146235,45.9641829 87.146235,46.4244961 L87.146235,49.8890469 L85.3333333,49.8890469 L85.3333333,43.7248898 L87.0988389,43.7248898 L87.0988389,44.3737041 C87.2520299,44.2432681 87.4196091,44.0783295 87.8216298,43.9142325 C88.3192891,43.7122669 88.6629109,43.6887043 88.8888889,43.6668247 L88.8888889,45.2690848 Z" id="Fill-37"></path>
            <path d="M93.5935401,43.6757421 C91.9200713,43.5859035 91.0077638,44.1931165 90.55161,44.6759992 C89.8040247,45.472515 89.7777778,46.429457 89.7777778,46.7663519 C89.7777778,47.9912056 90.335299,48.7099147 90.7280981,49.0460075 C91.6413107,49.8328978 92.98443,49.8890469 93.3274504,49.8890469 C94.5682972,49.8890469 95.3430345,49.4839709 95.7231626,49.2032251 C96.1784113,48.8663302 96.8888889,48.1035039 96.8888889,46.7767796 C96.8888889,45.8334738 96.4960898,44.8997936 95.6715738,44.3046126 C95.0506979,43.8666492 94.3664673,43.7094316 93.5935401,43.6757421 M93.2125069,45.0353537 C93.7329204,45.0128941 94.0361178,45.147652 94.214416,45.2599504 C94.5945441,45.4957768 94.9122226,45.9457721 94.9122226,46.8329288 C94.9122226,47.7088555 94.429822,48.5061735 93.3518872,48.5061735 C92.6178779,48.5061735 92.2377498,48.1363912 92.0847935,47.9342543 C91.9580841,47.754577 91.7417731,47.3278434 91.7417731,46.7551221 C91.7417731,45.889623 92.1608191,45.3947083 92.5165104,45.2038012 C92.7934609,45.0690432 93.1238103,45.0465836 93.2125069,45.0353537" id="Fill-39"></path>
            <path d="M102.920635,43.7779358 L102.920635,49.6104271 L101.237896,49.6104271 L101.237896,49.0632323 C101.11692,49.1972392 101.050578,49.263445 100.985797,49.3200789 C100.778968,49.4867898 100.275551,49.7779358 99.5762306,49.7779358 C99.4451081,49.7779358 98.8097884,49.7779358 98.3617865,49.420584 C97.7288082,48.9068908 97.7717352,47.9680448 97.7826621,47.2525436 L97.7826621,43.7779358 L99.4778887,43.7779358 L99.4778887,47.4096827 C99.4778887,47.7789994 99.4778887,48.06855 99.7947682,48.2480235 C99.8814027,48.3142293 100.035159,48.3812328 100.286477,48.3812328 C100.821894,48.3812328 101.106774,48.06855 101.182481,47.8563724 C101.237896,47.7111982 101.237896,47.5652264 101.248823,47.4096827 L101.248823,43.7779358 L102.920635,43.7779358 Z" id="Fill-41"></path>
            <g id="Fill-43-2" transform="translate(104, 44.0002)">
                <path d="M1.83093467,5.59400901 C2.35992737,5.90793808 2.68771799,6.08607087 3.33407873,6.08607087 C3.90917971,6.08607087 4.27385812,5.96305538 4.47338234,5.87438839 C4.67290752,5.7849226 5.09626947,5.52770842 5.43579737,5.03484776 C5.65963413,4.69935099 5.98826368,4.03874185 6,3.04423364 C6,2.22705941 5.79963685,1.36515228 5.17758865,0.738891638 C4.50859323,0.0567148983 3.68618092,0 3.33407873,0 C2.58208724,0 2.10171865,0.269196179 1.87871985,0.447328965 C1.74961549,0.537593559 1.71356663,0.592710947 1.62051113,0.704543143 L1.60793588,0.156565183 L0,0.156565183 L0,8 L1.83093467,8 L1.83093467,5.59400901 Z M3.29886783,1.25331999 C3.51096827,1.30923609 3.69875617,1.43225158 3.83959782,1.58881676 C4.28475647,2.09286072 4.26212083,2.85252125 4.26212083,3.02106834 C4.26212083,3.64812778 4.10954286,3.99480775 3.96870218,4.24163753 C3.86307142,4.41897152 3.61659902,4.84553168 2.99455082,4.84553168 C2.71203053,4.84553168 2.50076805,4.74488268 2.41777294,4.6881677 C2.2769313,4.61068399 2.16040218,4.49885171 2.06566979,4.37583622 C1.72614188,3.89415876 1.74961549,3.18961553 1.74961549,3.06660013 C1.74961549,1.80129804 2.37250262,1.2197703 3.03982114,1.2197703 C3.08760632,1.2197703 3.18150076,1.2197703 3.29886783,1.25331999 L3.29886783,1.25331999 Z" id="Fill-43"></path>
            </g>
        </g>
    </g>
</svg>