<?xml version="1.0" encoding="UTF-8"?>
<svg width="504px" height="72px" viewBox="0 0 504 72" version="1.1" xmlns="http://www.w3.org/2000/svg" xmlns:xlink="http://www.w3.org/1999/xlink">
    <title>jmc-logo-hoz-full</title>
    <g id="Horizontal-long" stroke="none" stroke-width="1" fill="none" fill-rule="evenodd">
        <g id="jmc-logo-hoz-full" fill-rule="nonzero">
            <rect id="Rectangle" fill="#434342" x="288" y="0" width="216" height="72"></rect>
            <rect id="Rectangle" fill="#268383" x="0" y="0" width="72" height="72"></rect>
            <rect id="Rectangle" fill="#FBC46E" x="72" y="0" width="72" height="72"></rect>
            <rect id="Rectangle" fill="#CD4B37" x="144" y="0" width="72" height="72"></rect>
            <path d="M35.2,56.6812412 C32,56.6812412 29.4,56.0719323 27.2,54.8533145 C25.1,53.6346968 23.3,52.212976 21.9,50.4866008 L27.5,44.0888575 C28.7,45.4090268 29.8,46.4245416 31,47.135402 C32.2,47.8462623 33.5,48.2524683 34.9,48.2524683 C36.6,48.2524683 37.9,47.7447109 38.9,46.6276446 C39.9,45.5105783 40.4,43.7842031 40.4,41.448519 L40.4,14.842031 L49.6,14.842031 L49.6,41.854725 C49.6,44.2919605 49.3,46.4245416 48.6,48.2524683 C47.9,50.0803949 47,51.6036671 45.8,52.8222849 C44.6,54.0409027 43,55.0564175 41.2,55.6657264 C39.4,56.3765867 37.4,56.6812412 35.2,56.6812412 Z" id="Path" fill="#F6F6F6"></path>
            <polygon id="Path" fill="#F6F6F6" points="88 15.842031 97.6 15.842031 108.3 33.3088858 119 15.842031 128.6 15.842031 128.6 57.0719323 119.8 57.0719323 119.8 30.1607898 108.4 47.8307475 108.2 47.8307475 96.9 30.3638928 96.9 57.1734838 88.1 57.1734838 88.1 15.842031"></polygon>
            <path d="M181.7,57.7827927 C178.7,57.7827927 176,57.2750353 173.4,56.157969 C170.8,55.0409027 168.6,53.5176305 166.8,51.6897038 C164.9,49.7602257 163.5,47.5260931 162.4,44.9873061 C161.4,42.3469676 160.8,39.6050776 160.8,36.6600846 L160.8,36.5585331 C160.8,33.6135402 161.3,30.8716502 162.4,28.2313117 C163.4,25.6925247 164.9,23.3568406 166.8,21.4273625 C168.7,19.4978843 170.9,17.9746121 173.5,16.8575458 C176.1,15.7404795 179,15.1311707 182.1,15.1311707 C184,15.1311707 185.7,15.3342736 187.3,15.6389281 C188.9,15.9435825 190.3,16.3497884 191.6,16.9590973 C192.9,17.4668547 194.1,18.1777151 195.1,18.9901269 C196.2,19.8025388 197.2,20.6149506 198.1,21.6304654 L192.4,28.3328632 C190.8,26.9111425 189.2,25.6925247 187.6,24.8801128 C186,24.067701 184.1,23.6614951 182.1,23.6614951 C180.4,23.6614951 178.8,23.9661495 177.4,24.6770099 C175.9,25.3878702 174.7,26.3018336 173.7,27.4188999 C172.7,28.6375176 171.8,29.9576869 171.3,31.4809591 C170.7,33.0042313 170.4,34.7306065 170.4,36.4569817 L170.4,36.5585331 C170.4,38.2849083 170.7,40.0112835 171.3,41.5345557 C171.9,43.0578279 172.7,44.4795487 173.7,45.6981664 C174.7,46.9167842 176,47.8307475 177.4,48.5416079 C178.8,49.2524683 180.4,49.5571227 182.2,49.5571227 C184.5,49.5571227 186.5,49.1509168 188.1,48.2369535 C189.7,47.3229901 191.3,46.2059238 192.9,44.6826516 L198.6,50.471086 C197.6,51.5881523 196.5,52.6036671 195.4,53.5176305 C194.3,54.4315938 193,55.2440056 191.7,55.8533145 C190.4,56.4626234 188.9,56.9703808 187.3,57.3765867 C185.4,57.5796897 183.7,57.7827927 181.7,57.7827927 Z" id="Path" fill="#F6F6F6"></path>
            <rect id="Rectangle" fill="#DADADA" x="216" y="0" width="72" height="72"></rect>
            <path d="M307.1,15.842031 L322.9,15.842031 C326.1,15.842031 329,16.3497884 331.6,17.3653032 C334.2,18.3808181 336.5,19.8025388 338.4,21.7320169 C340.3,23.5599436 341.8,25.7940762 342.8,28.2313117 C343.8,30.7700987 344.4,33.4104372 344.4,36.3554302 L344.4,36.4569817 C344.4,39.4019746 343.9,42.0423131 342.8,44.5811001 C341.8,47.1198872 340.3,49.2524683 338.4,51.0803949 C336.5,52.9083216 334.2,54.3300423 331.6,55.4471086 C328.9,56.4626234 326,57.0719323 322.9,57.0719323 L307.1,57.0719323 L307.1,15.842031 Z M323,48.8462623 C324.8,48.8462623 326.5,48.5416079 328,47.932299 C329.5,47.3229901 330.8,46.5105783 331.9,45.393512 C333,44.2764457 333.8,42.9562764 334.4,41.5345557 C335,40.0112835 335.3,38.3864598 335.3,36.5585331 L335.3,36.4569817 C335.3,34.629055 335,33.0042313 334.4,31.4809591 C333.8,29.9576869 333,28.6375176 331.9,27.5204513 C330.8,26.403385 329.5,25.5909732 328,24.9816643 C326.5,24.3723554 324.8,24.067701 323,24.067701 L316.1,24.067701 L316.1,48.9478138 L323,48.9478138 L323,48.8462623 Z" id="Shape" fill="#F6F6F6"></path>
            <polygon id="Path" fill="#F6F6F6" points="381.2 15.842031 411.8 15.842031 411.8 23.9661495 390 23.9661495 390 32.2933709 409.2 32.2933709 409.2 40.4174894 390 40.4174894 390 49.0493653 412.1 49.0493653 412.1 57.1734838 381.2 57.1734838 381.2 15.842031"></polygon>
            <polygon id="Path" fill="#F6F6F6" points="446.3 15.842031 456.2 15.842031 466.8 44.8857546 477.4 15.842031 487 15.842031 470.6 57.3765867 462.7 57.3765867"></polygon>
            <path d="M252.1,29.8561354 C255.5,29.8561354 258.2,32.5980254 258.2,35.9492243 C258.2,39.4019746 255.5,42.1438646 252.1,42.1438646 C248.7,42.1438646 246,39.4019746 246,35.9492243 C246,32.5980254 248.6,29.8561354 252.1,29.8561354 Z" id="Path" fill="#434342"></path>
        </g>
    </g>
</svg>