<?xml version="1.0" encoding="UTF-8"?>
<svg width="468px" height="79px" viewBox="0 0 468 79" version="1.1" xmlns="http://www.w3.org/2000/svg" xmlns:xlink="http://www.w3.org/1999/xlink">
    <title>NEC Group Primary</title>
    <g id="Page-1" stroke="none" stroke-width="1" fill="none" fill-rule="evenodd">
        <g id="NEC-Group-Primary" transform="translate(-0, 0.7)" fill="#FFFFFF" fill-rule="nonzero">
            <g id="Group" transform="translate(0, -0)">
                <path d="M0,1.3 L15.3,1.3 L15.3,8.3 L15.5,8.3 C17.6,4.3 22.8,0 30.5,0 C46.6,0 49.6,10.6 49.6,24.4 L49.6,52.8 L33.7,52.8 L33.7,27.6 C33.7,21.7 33.6,14 25.4,14 C17.1,14 15.9,20.5 15.9,27.2 L15.9,52.8 L0,52.8 L0,1.3 Z" id="Path"></path>
                <path d="M106.7,43.9 C101.6,50.4 93.2,54.1 85,54.1 C69.1,54.1 56.4,43.5 56.4,27.1 C56.4,10.7 69.1,0.1 85,0.1 C99.8,0.1 109.1,10.7 109.1,27.1 L109.1,32.1 L72.2,32.1 C73.5,38.1 78,42.1 84.2,42.1 C89.4,42.1 92.9,39.5 95.5,35.9 L106.7,43.9 Z M93.3,21.2 C93.4,15.9 89.3,11.5 83.6,11.5 C76.6,11.5 72.8,16.3 72.4,21.2 L93.3,21.2 Z" id="Shape"></path>
                <path d="M151.9,17.9 C150.3,15.7 147.3,14 144.1,14 C136.2,14 131.4,19.3 131.4,27 C131.4,34.7 136.2,40 144.1,40 C147.6,40 150.1,38.2 151.9,36.1 L162.4,47.1 C157.4,52.2 150.1,54 144.1,54 C128.2,54 115.5,43.4 115.5,27 C115.5,10.6 128.2,5.68434189e-14 144.1,5.68434189e-14 C150.1,5.68434189e-14 157.4,1.8 162.4,6.9 L151.9,17.9 Z" id="Path"></path>
                <path d="M240.4,48.5 C240.4,67.9 230.5,78.3 210.6,78.3 C201.5,78.3 192.2,76.7 184.8,70.8 L193.6,57.7 C198.5,61.8 203.9,64.4 210.3,64.4 C219.9,64.4 224.5,59.1 224.5,51.8 L224.5,46.8 L224.3,46.8 C220.7,51.8 214.6,53.6 209.8,53.6 C194.5,53.6 184.5,42.6 184.5,27 C184.5,13.3 193.4,0.2 208,0.2 C217,0.2 223.2,4.5 225.6,8.3 L225.8,8.3 L225.8,1.3 L240.4,1.3 L240.4,48.5 Z M213.1,39.5 C220.3,39.5 225.8,33.5 225.8,26.8 C225.8,20.1 220.3,14.1 213.1,14.1 C205.9,14.1 200.4,20.1 200.4,26.8 C200.4,33.4 205.9,39.5 213.1,39.5" id="Shape"></path>
                <path d="M249.8,1.3 L265.7,1.3 L265.7,9.6 L265.9,9.6 C269.3,3.4 273.7,0.1 280.7,0.1 C282.5,0.1 284.5,0.2 286,0.6 L286,15.1 C283.8,14.5 281.6,14 279.2,14 C267.1,14 265.6,21 265.6,31.3 L265.6,52.8 L249.7,52.8 L249.7,1.3 L249.8,1.3 Z" id="Path"></path>
                <path d="M317,0 C332.9,0 345.6,10.6 345.6,27 C345.6,43.4 332.9,54 317,54 C301.1,54 288.4,43.4 288.4,27 C288.4,10.6 301.2,0 317,0 M317,40.1 C324.9,40.1 329.7,34.8 329.7,27.1 C329.7,19.4 324.9,14.1 317,14.1 C309.1,14.1 304.3,19.4 304.3,27.1 C304.3,34.8 309.1,40.1 317,40.1" id="Shape"></path>
                <path d="M401.6,52.8 L386.3,52.8 L386.3,45.8 L386.1,45.8 C384,49.8 378.8,54.1 371,54.1 C354.9,54.1 351.9,43.5 351.9,29.7 L351.9,1.3 L367.8,1.3 L367.8,26.5 C367.8,32.4 367.9,40.1 376.1,40.1 C384.4,40.1 385.6,33.6 385.6,26.9 L385.6,1.3 L401.5,1.3 L401.5,52.8 L401.6,52.8 Z" id="Path"></path>
                <path d="M411.4,1.3 L426,1.3 L426,8.1 L426.2,8.1 C428.6,4.4 434.8,0 442,0 C457.2,0 467.3,11 467.3,26.6 C467.3,40.9 458.4,54 443.8,54 C437.2,54 431.1,52.2 427.5,47.2 L427.3,47.2 L427.3,76.9 L411.4,76.9 L411.4,1.3 Z M438.7,40.1 C446.6,40.1 451.4,34.8 451.4,27.1 C451.4,19.4 446.6,14.1 438.7,14.1 C430.7,14.1 426,19.4 426,27.1 C426,34.8 430.8,40.1 438.7,40.1" id="Shape"></path>
            </g>
        </g>
    </g>
</svg>