<?xml version="1.0" encoding="UTF-8"?>
<svg width="120px" height="240px" viewBox="0 0 120 240" version="1.1" xmlns="http://www.w3.org/2000/svg" xmlns:xlink="http://www.w3.org/1999/xlink">
    <title>jmc-logo-ver</title>
    <g id="Vertical" stroke="none" stroke-width="1" fill="none" fill-rule="evenodd">
        <g id="jmc-logo-ver" fill-rule="nonzero">
            <g id="Group-6" transform="translate(60, 60)">
                <rect id="Rectangle" fill="#434342" x="0" y="0" width="60" height="180"></rect>
                <g id="Group-4" transform="translate(13, 14)" fill="#F6F6F6">
                    <path d="M2,0 L15.1313673,0 C17.7908847,0 20.2010724,0.418719212 22.3619303,1.25615764 C24.5227882,2.09359606 26.4343164,3.26600985 28.0134048,4.85714286 C29.5924933,6.36453202 30.8391421,8.20689655 31.6702413,10.2167488 C32.5013405,12.3103448 33,14.4876847 33,16.9162562 L33,17 C33,19.4285714 32.5844504,21.6059113 31.6702413,23.6995074 C30.8391421,25.7931034 29.5924933,27.5517241 28.0134048,29.0591133 C26.4343164,30.5665025 24.5227882,31.8226601 22.3619303,32.6600985 C20.1179625,33.4975369 17.7077748,34 15.1313673,34 L2,34 L2,0 Z M15.1313673,27.3004926 C16.6273458,27.3004926 18.0402145,27.0492611 19.2868633,26.546798 C20.5335121,26.044335 21.613941,25.3743842 22.5281501,24.453202 C23.4423592,23.5320197 24.1072386,22.4433498 24.6058981,21.270936 C25.1045576,20.0147783 25.3538874,18.6748768 25.3538874,17.1674877 L25.3538874,17.0837438 C25.3538874,15.5763547 25.1045576,14.2364532 24.6058981,12.9802956 C24.1072386,11.7241379 23.4423592,10.635468 22.5281501,9.71428571 C21.613941,8.79310345 20.5335121,8.12315271 19.2868633,7.62068966 C18.0402145,7.1182266 16.6273458,6.86699507 15.1313673,6.86699507 L9.39678284,6.86699507 L9.39678284,27.3004926 L15.1313673,27.3004926 Z" id="Shape"></path>
                    <polygon id="Path" points="5.08414239 59 30.7475728 59 30.7475728 65.6830467 12.4045307 65.6830467 12.4045307 72.5331695 28.5598706 72.5331695 28.5598706 79.2162162 12.4045307 79.2162162 12.4045307 86.3169533 31 86.3169533 31 93 5 93 5 59"></polygon>
                    <polygon id="Path" points="0 119 8.27027027 119 17.1253071 142.717073 25.980344 119 34 119 20.3832924 153 13.7837838 153"></polygon>
                </g>
            </g>
            <g id="Group">
                <rect id="Rectangle" fill="#268383" x="0" y="0" width="60" height="60"></rect>
                <path d="M27.5234657,48 C24.7509025,48 22.4981949,47.4902913 20.5920578,46.4708738 C18.7725632,45.4514563 17.2129964,44.2621359 16,42.8179612 L20.8519856,37.4660194 C21.8916968,38.5703883 22.8447653,39.4199029 23.8844765,40.0145631 C24.9241877,40.6092233 26.0505415,40.9490291 27.2635379,40.9490291 C28.7364621,40.9490291 29.8628159,40.5242718 30.7292419,39.5898058 C31.5956679,38.6553398 32.0288809,37.211165 32.0288809,35.2572816 L32.0288809,13 L40,13 L40,35.5970874 C40,37.6359223 39.7400722,39.4199029 39.133574,40.9490291 C38.5270758,42.4781553 37.7472924,43.7524272 36.7075812,44.7718447 C35.66787,45.7912621 34.2815884,46.6407767 32.7220217,47.1504854 C31.1624549,47.6601942 29.4296029,48 27.5234657,48 Z" id="Path" fill="#F6F6F6"></path>
            </g>
            <g id="Group-2" transform="translate(0, 60)">
                <rect id="Rectangle" fill="#FBC46E" x="0" y="0" width="60" height="60"></rect>
                <polygon id="Path" fill="#F6F6F6" points="13 14 21.0394089 14 30 28.4039409 38.9605911 14 47 14 47 48 39.6305419 48 39.6305419 25.8078818 30.0837438 40.3793103 29.9162562 40.3793103 20.453202 25.9753695 20.453202 48 13.0837438 48 13.0837438 14"></polygon>
            </g>
            <g id="Group-3" transform="translate(0, 120)">
                <rect id="Rectangle" fill="#CD4B37" x="0" y="0" width="60" height="60"></rect>
                <path d="M31.6931217,47 C29.1534392,47 26.8677249,46.5833333 24.6666667,45.6666667 C22.4656085,44.75 20.6031746,43.5 19.0793651,42 C17.5555556,40.5 16.2857143,38.5833333 15.3544974,36.5 C14.5079365,34.3333333 14,32.0833333 14,29.6666667 L14,29.5833333 C14,27.1666667 14.4232804,24.9166667 15.3544974,22.75 C16.2010582,20.6666667 17.4708995,18.75 19.0793651,17.1666667 C20.6878307,15.5833333 22.5502646,14.3333333 24.7513228,13.4166667 C26.952381,12.5 29.4074074,12 32.031746,12 C33.6402116,12 35.0793651,12.1666667 36.4338624,12.4166667 C37.7883598,12.6666667 38.973545,13 40.0740741,13.5 C41.1746032,13.9166667 42.1904762,14.5 43.037037,15.1666667 C43.968254,15.8333333 44.8148148,16.5 45.5767196,17.3333333 L40.7513228,22.8333333 C39.3968254,21.6666667 38.042328,20.6666667 36.6878307,20 C35.3333333,19.3333333 33.7248677,19 32.031746,19 C30.5925926,19 29.2380952,19.25 28.0529101,19.8333333 C26.8677249,20.4166667 25.7671958,21.1666667 24.9206349,22.0833333 C24.0740741,23.0833333 23.3121693,24.1666667 22.8888889,25.4166667 C22.3809524,26.6666667 22.1269841,28.0833333 22.1269841,29.5 L22.1269841,29.5833333 C22.1269841,31 22.3809524,32.4166667 22.8888889,33.6666667 C23.3968254,34.9166667 24.0740741,36.0833333 24.9206349,37.0833333 C25.7671958,38.0833333 26.8677249,38.8333333 28.0529101,39.4166667 C29.3227513,40 30.5925926,40.25 32.1164021,40.25 C34.0634921,40.25 35.7566138,39.9166667 37.1111111,39.1666667 C38.4656085,38.4166667 39.8201058,37.5 41.1746032,36.25 L46,41 C45.1534392,41.9166667 44.2222222,42.75 43.2910053,43.5 C42.3597884,44.25 41.2592593,44.9166667 40.1587302,45.4166667 C39.0582011,45.9166667 37.7883598,46.3333333 36.4338624,46.6666667 C34.9100529,46.8333333 33.3862434,47 31.6931217,47 Z" id="Path" fill="#F6F6F6"></path>
            </g>
            <g id="Group-5" transform="translate(60, 0)">
                <rect id="Rectangle" fill="#DADADA" x="0" y="0" width="60" height="60"></rect>
                <path d="M30,25 C32.7868852,25 35,27.231405 35,29.9586777 C35,32.768595 32.7868852,35 30,35 C27.2131148,35 25,32.768595 25,29.9586777 C25,27.231405 27.2131148,25 30,25 Z" id="Path" fill="#434342"></path>
            </g>
        </g>
    </g>
</svg>