<?xml version="1.0" encoding="UTF-8"?>
<svg width="150px" height="31px" viewBox="0 0 150 31" version="1.1" xmlns="http://www.w3.org/2000/svg" xmlns:xlink="http://www.w3.org/1999/xlink">
    <title>Group 13</title>
    <defs>
        <polygon id="path-1" points="0 31 150 31 150 0 0 0"></polygon>
    </defs>
    <g id="Desktop" stroke="none" stroke-width="1" fill="none" fill-rule="evenodd">
        <g id="Homepage-desktop" transform="translate(-524, -3983)">
            <g id="Group-13" transform="translate(524, 3983)">
                <path d="M0,0 L6.86538462,0 L6.86538462,11.1258278 C8.07692308,8.94039735 10.9038462,7.54966887 13.3269231,7.54966887 C20.3942308,7.54966887 21,12.9139073 21,15.8940397 L21,29.8013245 L14.1346154,29.8013245 L14.1346154,19.4699503 C14.1346154,16.4900662 14.5384615,13.5099338 10.7019231,13.5099338 C8.07692308,13.5099338 6.86538462,15.6953642 6.86538462,18.0794702 L6.86538462,30 L0,30 L0,0 Z" id="Fill-1" fill="#FFFFFF"></path>
                <path d="M33.509434,26.4786325 C36.6792453,26.4786325 37.8679245,24.5128205 37.6698113,20.1880342 C36.6792453,20.7777778 34.8962264,20.9746047 33.509434,21.3675214 C31.9245283,21.7606838 30.7358491,22.3504274 30.7358491,24.1196581 C30.7358491,25.6923077 31.9245283,26.4786325 33.509434,26.4786325 L33.509434,26.4786325 Z M24.7924528,15.2735043 C24.990566,12.5213675 26.1792453,10.5555556 27.9622642,9.57264957 C29.745283,8.58974359 32.1226415,8 34.5,8 C39.4528302,8 44.2075472,9.17948718 44.2075472,15.2735043 L44.2075472,24.7094017 C44.2075472,26.4786325 44.2075472,28.4444444 45,30.2136752 L38.2641509,30.2136752 C38.0660377,29.6239316 37.8679245,28.8378526 37.8679245,28.2478632 C36.0849057,30.2136752 33.509434,31 31.1320755,31 C27.1698113,31 24,28.8378526 24,24.5128205 C24,17.4358974 31.3301887,18.0258868 36.0849057,17.0429808 C37.2735849,16.8461538 37.8679245,16.4529915 37.8679245,15.0769231 C37.8679245,13.5042735 36.0849057,12.9145299 34.6981132,12.9145299 C32.9150943,12.9145299 31.7264151,13.7008547 31.3301887,15.6666667 L24.7924528,15.6666667 L24.7924528,15.2735043 Z" id="Fill-3" fill="#FFFFFF"></path>
                <mask id="mask-2" fill="white">
                    <use xlink:href="#path-1"></use>
                </mask>
                <g id="Clip-6"></g>
                <polygon id="Fill-5" fill="#FFFFFF" mask="url(#mask-2)" points="47 30 54 30 54 0 47 0"></polygon>
                <path d="M78.7604854,25.8 C82.5991609,25.8 84.6195164,21.20025 84.8215519,18 C85.0235875,15.2 84.4172283,13.4 81.7910186,13.4 C77.9523432,13.4 76.1340232,18.4 75.7299521,21.4 C75.7299521,23.8 76.3360588,25.8 78.7604854,25.8 M83.003232,8 C88.862263,8 92.7009384,11.4 91.8927962,17.6 C91.084654,25.4 85.6296941,31 78.1543787,31 C72.2953477,31 68.4566722,28 69.0627789,21.6 C69.8709211,13.8 75.325881,8 83.003232,8" id="Fill-7" fill="#FFFFFF" mask="url(#mask-2)"></path>
                <path d="M70.7945205,8.28947368 L66.4794521,8.28947368 L66.4794521,7.30263158 C66.4794521,5.32894737 67.5068493,5.13157895 69.1506849,5.13157895 C69.7671233,5.13157895 70.3835616,5.13157895 71,5.32894737 L71,0.197368421 C69.9726027,0 68.739726,0 67.5068493,0 C61.5479452,0 59.2876712,1.97368421 59.2876712,8.28947368 L56,8.28947368 L56,13.0263158 L59.2876712,13.0263158 L59.2876712,30 L66.2739726,30 L66.2739726,12.8289474 L68.739726,12.8289474 L70.7945205,8.28947368 Z" id="Fill-8" fill="#FFFFFF" mask="url(#mask-2)"></path>
                <polygon id="Fill-9" fill="#FFFFFF" mask="url(#mask-2)" points="109 14.1 109 14.1 109 13.9"></polygon>
                <path d="M94.4109589,8.40707965 L101.191781,8.40707965 L101.191781,12.0707965 C102.219178,9.42477876 104.684932,8 107.561644,8 C107.972603,8 108.589041,8 109,8.20379425 L108.589041,9.01769912 L106.739726,14.1061947 L106.328767,14.1061947 C102.835616,14.1061947 100.986558,16.5486726 100.986558,19.1949447 L100.986558,31 L94.4109589,31 L94.4109589,26.1150442 L94.4109589,8.40707965 Z" id="Fill-10" fill="#FFFFFF" mask="url(#mask-2)"></path>
                <path d="M114.862385,19.0769231 C114.862385,22.0576923 115.87156,25.4358974 119.100917,25.4358974 C122.531858,25.4358974 123.137615,22.0576923 123.137615,19.275641 C123.137615,16.0961538 122.12844,13.1153846 119.100917,13.1153846 C116.073394,13.1153846 114.862385,16.2948718 114.862385,19.0769231 L114.862385,19.0769231 Z M130,30.2051282 L123.33945,30.2051282 L123.33945,27.8205128 C121.926606,29.8076923 119.908257,31 117.485986,31 C110.825688,31 108,25.0384615 108,18.8782051 C108,13.1153846 110.825688,7.75 116.880734,7.75 C119.504335,7.75 121.522683,8.74358974 122.93578,10.7307692 L122.93578,0 L129.797913,0 L129.797913,30.2051282 L130,30.2051282 Z" id="Fill-11" fill="#FFFFFF" mask="url(#mask-2)"></path>
                <path d="M140.703297,31 C137.142857,31 134.571181,29.9822896 132,28.3542075 L133.978022,22.6547749 C136.153846,24.283366 138.725275,25.504364 140.703297,25.504364 C142.483269,25.504364 143.076923,24.8937378 143.076923,24.0798239 C143.076923,21.2302348 132.989011,23.0621135 132.989011,15.5308023 C132.989011,11.0531311 136.747253,8 141.89011,8 C144.461291,8 147.626374,9.01771037 149.802198,10.2387084 L147.824176,15.7343444 C145.648352,14.513092 143.47228,13.6989237 141.692308,13.6989237 C140.307445,13.6989237 139.516236,14.3095499 139.516236,15.1239726 C139.516236,17.9735617 150,16.141683 150,24.283366 C150,28.1506654 146.043956,31 140.703297,31" id="Fill-12" fill="#FFFFFF" mask="url(#mask-2)"></path>
            </g>
        </g>
    </g>
</svg>