<?xml version="1.0" encoding="utf-8"?>
<!-- Generator: Adobe Illustrator 24.1.0, SVG Export Plug-In . SVG Version: 6.00 Build 0)  -->
<svg version="1.1" id="Layer_1" xmlns="http://www.w3.org/2000/svg" xmlns:xlink="http://www.w3.org/1999/xlink" x="0px" y="0px"
	 viewBox="0 0 566.9 283.5" style="enable-background:new 0 0 566.9 283.5;" xml:space="preserve">
<style type="text/css">
	.st0{fill:#3C3C3B;}
	.st1{fill:#40A8A9;}
	.st2{fill:#FCC56F;}
	.st3{fill:#E26856;}
	.st4{fill:#F6F6F6;}
	.st5{fill:#DADADA;}
	.st6{fill:#FFFFFF;}
</style>
<rect x="212.3" y="142" class="st0" width="212.6" height="70.9"/>
<rect x="141.4" y="71.1" class="st1" width="70.9" height="70.9"/>
<rect x="212.3" y="71.1" class="st2" width="70.9" height="70.9"/>
<rect x="283.2" y="71.1" class="st3" width="70.9" height="70.9"/>
<g>
	<path class="st4" d="M174.6,127.8c-3.2,0-5.8-0.6-8-1.8c-2.1-1.2-3.9-2.6-5.3-4.3l5.6-6.3c1.2,1.3,2.3,2.3,3.5,3
		c1.2,0.7,2.5,1.1,3.9,1.1c1.7,0,3-0.5,4-1.6c1-1.1,1.5-2.8,1.5-5.1V86.6h9.2v26.6c0,2.4-0.3,4.5-1,6.3c-0.7,1.8-1.6,3.3-2.8,4.5
		c-1.2,1.2-2.8,2.2-4.6,2.8C178.8,127.5,176.8,127.8,174.6,127.8z"/>
</g>
<g>
	<path class="st4" d="M227.4,86.6h9.6l10.7,17.2l10.7-17.2h9.6v40.6h-8.8v-26.5l-11.4,17.4h-0.2l-11.3-17.2v26.4h-8.8V86.6z"/>
</g>
<g>
	<path class="st4" d="M321.1,128c-3,0-5.7-0.5-8.3-1.6c-2.6-1.1-4.8-2.6-6.6-4.4c-1.9-1.9-3.3-4.1-4.4-6.6s-1.6-5.3-1.6-8.2v-0.1
		c0-2.9,0.5-5.6,1.6-8.2c1-2.5,2.5-4.8,4.4-6.7s4.1-3.4,6.7-4.5c2.6-1.1,5.5-1.7,8.6-1.7c1.9,0,3.6,0.2,5.2,0.5
		c1.6,0.3,3,0.7,4.3,1.3c1.3,0.5,2.5,1.2,3.5,2c1.1,0.8,2.1,1.6,3,2.6l-5.7,6.6c-1.6-1.4-3.2-2.6-4.8-3.4c-1.6-0.8-3.5-1.2-5.5-1.2
		c-1.7,0-3.3,0.3-4.7,1c-1.5,0.7-2.7,1.6-3.7,2.7c-1,1.2-1.9,2.5-2.4,4c-0.6,1.5-0.9,3.2-0.9,4.9v0.1c0,1.7,0.3,3.4,0.9,4.9
		c0.6,1.5,1.4,2.9,2.4,4.1c1,1.2,2.3,2.1,3.7,2.8c1.5,0.7,3,1,4.8,1c2.3,0,4.3-0.4,5.9-1.3c1.6-0.9,3.2-2,4.8-3.5l5.7,5.7
		c-1,1.1-2.1,2.1-3.2,3c-1.1,0.9-2.4,1.7-3.7,2.3s-2.8,1.1-4.4,1.5C324.8,127.8,323.1,128,321.1,128z"/>
</g>
<rect x="141.4" y="142" class="st5" width="70.9" height="70.9"/>
<g>
	<path class="st6" d="M229.9,157.5h15.8c3.2,0,6.1,0.5,8.7,1.5c2.6,1,4.9,2.4,6.8,4.3c1.9,1.8,3.4,4,4.4,6.4c1,2.5,1.6,5.1,1.6,8
		v0.1c0,2.9-0.5,5.5-1.6,8c-1,2.5-2.5,4.6-4.4,6.4c-1.9,1.8-4.2,3.3-6.8,4.3c-2.7,1-5.6,1.6-8.7,1.6h-15.8V157.5z M245.8,190.1
		c1.8,0,3.5-0.3,5-0.9c1.5-0.6,2.8-1.4,3.9-2.5c1.1-1.1,1.9-2.4,2.5-3.8c0.6-1.5,0.9-3.1,0.9-4.9v-0.1c0-1.8-0.3-3.4-0.9-4.9
		c-0.6-1.5-1.4-2.8-2.5-3.9c-1.1-1.1-2.4-1.9-3.9-2.5c-1.5-0.6-3.2-0.9-5-0.9h-6.9v24.5H245.8z"/>
</g>
<g>
	<path class="st6" d="M304,157.5h30.6v8h-21.8v8.2H332v8h-19.2v8.5h22.1v8H304V157.5z"/>
</g>
<g>
	<path class="st6" d="M369.1,157.5h9.9l10.6,28.6l10.6-28.6h9.6l-16.4,40.9h-7.9L369.1,157.5z"/>
</g>
<g>
	<path class="st0" d="M176.9,171.4c3.4,0,6.1,2.7,6.1,6c0,3.4-2.7,6.1-6.1,6.1c-3.4,0-6.1-2.7-6.1-6.1
		C170.8,174,173.4,171.4,176.9,171.4z"/>
</g>
</svg>
