<?xml version="1.0" encoding="UTF-8"?>
<svg width="2500px" height="655px" viewBox="0 0 2500 655" version="1.1" xmlns="http://www.w3.org/2000/svg" xmlns:xlink="http://www.w3.org/1999/xlink">
    <title>kaercher-5</title>
    <g id="Page-1" stroke="none" stroke-width="1" fill="none" fill-rule="evenodd">
        <g id="kaercher-5" transform="translate(0.9045, 0.2002)" fill="#FFFFFF" fill-rule="nonzero">
            <path d="M1249.43813,452.606047 L2489.40474,452.606047 C2500,452.606047 2498.55519,451.000704 2498.55519,461.435431 L2498.55519,645.247156 C2498.55519,655.681883 2499.83947,654.558143 2489.56527,654.558143 L10.1136583,654.558143 C0.321068516,654.558143 0.321068516,654.558143 0.321068516,644.765553 L0.321068516,461.756499 C0.321068516,452.606047 0.321068516,452.606047 9.31098696,452.606047 L1249.43813,452.606047 Z M1772.29821,177.289794 L1772.29821,339.910998 C1772.29821,344.88756 1771.49554,346.813971 1765.87684,346.653436 L1672.9275,346.653436 C1666.98774,346.653436 1665.864,344.88756 1665.864,339.429395 L1665.864,225.931674 C1665.864,220.634044 1665.864,218.707633 1658.96102,218.707633 L1559.26925,218.707633 C1554.13215,218.707633 1553.00841,220.152441 1553.00841,225.129003 L1553.00841,340.553135 C1553.00841,345.208628 1553.00841,346.813971 1547.22918,346.653436 L1452.1929,346.653436 C1447.21634,346.653436 1446.41366,345.048094 1446.41366,340.3926 L1446.41366,12.4211112 C1446.41366,7.76561768 1447.5374,6.32080936 1452.35343,6.32080936 L1547.38971,6.32080936 C1552.68734,6.32080936 1553.00841,8.24722046 1553.00841,12.5816454 L1553.00841,124.955626 C1553.00841,130.253257 1554.29269,131.537531 1559.59032,131.537531 L1659.44263,131.537531 C1664.57972,131.537531 1665.864,130.413791 1665.864,125.276695 L1665.864,12.9027139 C1665.864,7.92615194 1666.98774,6.32080936 1672.28537,6.32080936 L1766.51898,6.32080936 C1771.65607,6.32080936 1772.29821,8.0866862 1772.29821,12.5816454 L1772.29821,177.289794 Z M225.390098,346.653436 C221.537276,346.653436 220.413536,344.405957 218.808194,341.837409 C193.443781,300.901173 167.918834,260.125471 142.714955,219.189235 C140.952609,215.210537 136.741508,212.907591 132.440763,213.570536 C125.864971,213.971688 119.270841,213.971688 112.695049,213.570536 C107.879021,213.570536 106.594747,214.694276 106.594747,219.510304 L106.594747,339.108326 C106.594747,345.048094 105.471008,346.813971 99.2101715,346.813971 L5.61869903,346.813971 C1.12373981,346.813971 0,345.850765 0,341.355806 L0,12.4211112 C0,7.60508343 0.963205548,6.32080936 5.77923329,6.32080936 L100.173377,6.32080936 C105.310473,6.32080936 106.594747,7.76561768 106.594747,12.9027139 L106.594747,127.684708 C106.594747,132.500736 107.397419,134.587682 112.855583,134.266613 C121.845502,134.266613 132.601297,136.835161 139.664804,132.982339 C146.728312,129.129517 150.260065,118.855324 155.71823,111.14968 C177.122798,78.0796227 198.527366,44.9025427 219.931933,11.6184399 C221.902102,7.81974669 225.93668,5.55029654 230.206126,5.83920659 L344.185449,5.83920659 C344.185449,8.72882323 342.901175,10.0130973 341.777435,11.6184399 C306.88799,61.7051284 272.319613,111.631283 238.072305,161.396903 C235.010163,164.76476 235.010163,169.90858 238.072305,173.276438 C274.83465,228.821291 311.436461,285.650418 348.038271,340.553135 C348.35934,342.319011 349.48308,343.924354 350.446285,346.653436 L225.390098,346.653436 Z M1836.03031,13.2237825 C1836.03031,7.76561768 1837.31458,6.32080936 1842.77275,6.32080936 L2101.71451,6.32080936 C2106.53053,6.32080936 2108.45694,7.12348065 2108.61748,12.4211112 C2108.61748,36.8223184 2109.42015,60.5813886 2110.22282,85.6247328 C2110.22282,90.7618291 2108.61748,91.4039661 2104.12252,91.4039661 L1950.3307,91.4039661 C1944.2304,91.4039661 1941.98292,92.5277059 1942.30399,99.1096105 C1942.86577,109.376123 1942.86577,119.665675 1942.30399,129.932188 C1942.30399,135.550887 1943.58826,137.15623 1949.3675,137.15623 L2074.42368,137.15623 C2080.20292,137.15623 2081.48719,138.761572 2081.48719,144.219737 L2081.48719,204.420084 C2081.48719,210.038783 2080.20292,211.644125 2074.42368,211.644125 L1950.00963,211.644125 C1943.58826,211.644125 1942.14345,213.570536 1942.30399,219.670838 L1942.30399,257.235855 C1942.30399,262.212417 1943.42773,263.657225 1948.72536,263.657225 L2109.25962,263.657225 C2114.55725,263.657225 2116.48366,263.657225 2116.32312,270.560198 C2115.35992,293.9982 2114.87832,317.436201 2114.55725,340.874203 C2114.55725,345.850765 2113.43351,347.93771 2107.65427,347.777176 L1842.45168,347.777176 C1836.83298,347.777176 1835.86977,346.011299 1835.86977,340.874203 C1835.9768,285.757441 1836.03031,230.961748 1836.03031,176.487123 L1836.03031,13.2237825 Z M1232.26096,215.175879 C1234.53404,244.475975 1259.06032,267.040156 1288.44795,266.86791 C1320.42122,270.105173 1352.71453,266.212432 1383.00263,255.469978 C1386.53439,254.346238 1387.65813,254.346238 1388.30026,258.359594 C1391.35041,281.637062 1394.5611,304.753995 1398.25339,327.870928 C1398.25339,331.402682 1398.25339,332.686956 1394.88217,333.810696 C1355.69797,349.567173 1313.32991,355.784823 1271.27079,351.951067 C1248.14917,350.479319 1225.45178,345.049323 1204.16747,335.897641 C1166.36952,319.622627 1138.05833,286.996792 1127.27156,247.282731 C1113.61217,202.88619 1113.16594,155.474382 1125.98729,110.828611 C1139.3286,60.6174148 1179.26651,21.8523258 1229.85295,10.0130973 C1272.43284,-1.44744122 1317.05857,-3.09414709 1360.3673,5.19706956 C1371.18719,7.11597194 1381.90315,9.58064278 1392.47415,12.5816454 C1395.84537,13.544851 1397.29018,14.6685908 1396.80858,19.16355 C1393.43736,42.9226202 1390.54774,67.3238274 1387.81866,90.7618291 C1387.81866,95.4173226 1386.53439,97.5042679 1380.91569,96.0594596 C1350.59221,87.6236777 1318.96417,84.9018153 1287.64528,88.0327467 C1249.91973,91.8855689 1235.47165,107.938995 1230.65562,144.540806 C1229.47806,155.253612 1229.10244,166.03942 1229.53188,176.808191 C1229.24744,189.654437 1230.16109,202.49923 1232.26096,215.175879 Z M661.401143,78.4006912 C657.869389,78.4006912 656.585115,78.4006912 656.585115,74.0662662 L656.585115,9.85256304 C656.585115,5.99974085 658.029924,5.19706956 661.401143,5.35760381 L731.715148,5.35760381 C735.086367,5.35760381 736.049573,6.32080936 736.049573,9.53149452 L736.049573,73.7451977 C736.049573,77.2769514 734.765299,77.7585542 731.715148,77.7585542 C719.675079,78.240157 707.956078,78.4006912 696.237077,78.4006912 L661.401143,78.4006912 Z M365.536505,78.4006912 C362.004752,78.4006912 360.720478,78.4006912 360.720478,74.0662662 L360.720478,9.85256304 C360.720478,6.1602751 362.004752,5.19706956 365.536505,5.35760381 L435.208373,5.35760381 C438.740127,5.35760381 439.863867,6.48134362 439.863867,10.1736316 L439.863867,74.3873348 C439.863867,78.4006912 438.258524,78.7217597 435.047839,78.7217597 C423.489373,78.240157 411.930906,78.4006912 400.211905,78.4006912 L365.536505,78.4006912 Z M2414.75631,219.34977 C2412.18776,215.336413 2411.86669,213.891605 2416.84325,211.965194 C2429.0777,206.900117 2439.84237,198.840415 2448.14743,188.527192 C2463.92458,168.550822 2472.16544,143.657738 2471.4249,118.213187 C2473.76574,82.8528973 2456.50089,49.0631166 2426.47531,30.2404138 C2400.60068,15.020984 2371.08923,7.08839404 2341.07108,7.28401491 C2284.56303,6.1602751 2228.6971,7.28401491 2171.54691,6.32080936 C2166.73088,6.32080936 2165.60714,7.92615194 2165.60714,12.5816454 L2165.60714,340.553135 C2165.60714,345.529697 2167.05195,346.653436 2171.70744,346.492902 L2265.45945,346.492902 C2270.91761,346.492902 2272.04135,344.88756 2272.04135,339.750463 L2272.04135,240.540292 C2272.04135,235.403196 2273.32563,233.958387 2278.46272,234.118921 L2310.56958,234.118921 C2314.22301,233.612763 2317.72281,235.766486 2318.91736,239.256018 C2336.09452,273.128746 2353.59276,307.001475 2370.76992,340.874203 C2372.13378,344.486131 2375.75868,346.726978 2379.59931,346.332368 L2491.97329,346.332368 C2493.95983,346.949965 2496.08705,346.949965 2498.07359,346.332368 C2497.11038,342.961148 2495.02344,341.51634 2493.73916,339.26886 L2414.75631,219.34977 Z M2357.92718,141.490655 C2354.74954,154.654404 2342.54117,163.607213 2329.03102,162.681177 L2276.37578,162.681177 C2272.20189,162.681177 2271.55975,160.9153 2271.72029,157.383546 L2271.72029,91.2434318 C2271.72029,88.835418 2271.72029,85.9458013 2275.0915,86.1063356 C2295.33275,85.4357814 2315.59597,85.9718454 2335.77345,87.7116782 C2348.41003,88.4263919 2358.49674,98.5131034 2359.21146,111.14968 C2361.21541,121.220551 2360.775,131.62515 2357.92718,141.490655 L2357.92718,141.490655 Z M1026.93765,214.212673 C1045.01223,207.776478 1060.35608,195.376834 1070.44243,179.055671 C1084.25077,156.298072 1089.91167,129.522035 1086.49586,103.122967 C1084.77456,75.215636 1070.4102,49.6198947 1047.48603,33.6116332 C1020.48897,15.998877 988.854795,6.83279156 956.623643,7.28401491 C900.115585,6.1602751 844.249663,7.28401491 787.099467,6.32080936 C781.962371,6.32080936 781.320234,8.0866862 781.320234,12.5816454 L781.320234,340.553135 C781.320234,345.369162 782.443974,346.653436 787.260001,346.492902 L880.209337,346.492902 C886.149104,346.492902 887.914981,345.208628 887.754447,339.108326 L887.754447,240.700826 C887.754447,235.403196 889.038721,233.958387 894.175817,234.118921 L924.998395,234.118921 C929.280929,233.641397 933.331637,236.16479 934.790984,240.219223 C951.807616,273.770883 969.145316,307.001475 986.001413,340.553135 C987.42565,344.394004 991.229078,346.820329 995.3124,346.492902 L1113.78668,346.492902 L1026.93765,214.212673 Z M973.319206,141.490655 C970.083571,154.615686 957.913694,163.540262 944.42304,162.681177 L890.644063,162.681177 C886.951776,162.681177 886.630707,160.9153 886.630707,158.025683 L886.630707,90.6012948 C886.630707,88.3538152 886.630707,85.9458013 889.841392,86.1063356 C910.082646,85.4376806 930.345754,85.9737416 950.523342,87.7116782 C962.930866,88.3301958 972.923064,98.1156584 973.800809,110.507543 C975.968073,120.74046 975.803468,131.330041 973.319206,141.490655 L973.319206,141.490655 Z M611.956592,11.9395084 C611.011464,8.21363906 607.416397,5.79388189 603.60881,6.32080936 L492.840172,6.32080936 C488.818915,5.78500761 485.030016,8.33390305 484.010788,12.2605769 C445.482566,109.544337 406.847321,206.721075 368.105054,303.790789 C362.486355,317.75727 357.02819,331.72375 352.051628,345.850765 C352.691771,345.922335 353.337896,345.922335 353.978039,345.850765 L461.214923,345.850765 C464.907211,345.850765 465.549348,343.76382 466.512554,341.034737 C471.168047,324.981312 476.305144,310.372694 480.800103,295.12194 C481.116351,293.055501 482.242148,291.199939 483.928893,289.965 C485.615638,288.730062 487.724581,288.217333 489.790021,288.540035 L603.929879,288.540035 C606.111748,288.173537 608.34814,288.723872 610.110769,290.061039 C611.873397,291.398205 613.00594,293.403614 613.240866,295.603542 C617.575291,310.372694 622.391318,324.981312 626.565209,339.910998 C627.849483,344.405957 629.61536,346.011299 634.431388,345.850765 L741.828806,345.850765 C747.286971,346.813971 747.126437,345.048094 745.200026,340.3926 C700.678525,230.908236 656.264047,121.423872 611.956592,11.9395084 Z M508.251461,210.359851 C521.094202,168.781478 535.221216,128.166311 547.582354,86.7484726 C559.461889,128.166311 573.267835,168.781478 585.789507,210.359851 L508.251461,210.359851 Z" id="Shape"></path>
        </g>
    </g>
</svg>